<?xml version="1.0" standalone="no"?>
  <!DOCTYPE svg PUBLIC "-//W3C//DTD SVG 1.1//EN" "http://www.w3.org/Graphics/SVG/1.1/DTD/svg11.dtd" >
  <svg>
  <metadata>
  Created by font-carrier
  </metadata>
  <defs>
  <font id="mr_HamiltoneG" horiz-adv-x="4502" vert-adv-y="4502" >
    <font-face
      
      font-family="mr_HamiltoneG"
      
      font-weight="400"
      
      font-stretch="normal"
      
      units-per-em="2048"
      
      ascent="2135"
      
      descent="-1677"
      
    />
      <missing-glyph />

      

      
      <glyph glyph-name="uni21" unicode="&#x21;" d="M250 874L250 874Q264 899 286 897.50Q308 896 321 878Q334 860 320 835Q272 757 238.50 672Q205 587 179 501Q123 324 103 141Q102 131 94.50 128.50Q87 126 80 129.50Q73 133 73 143Q90 330 135 512Q174 699 250 874M40-21L40-21Q42 3 59 11Q76 19 93.50 11Q111 3 113-21Q111-45 93.50-53Q76-61 59-53Q42-45 40-21Z"  horiz-adv-x="434" vert-adv-y="2048"  />

      
      <glyph glyph-name="uni22" unicode="&#x22;" d="M211 728L211 728Q222 756 245 757Q268 758 282.50 740Q297 722 284 695L200 562Q194 554 185.50 554Q177 554 171 560.50Q165 567 167 577Q167 577 171.50 592.50Q176 608 182.50 630Q189 652 195.50 674.50Q202 697 206.50 712.50Q211 728 211 728M87 728L87 728Q98 756 121 757Q144 758 158.50 740Q173 722 160 695L76 562Q70 554 61.50 554Q53 554 46.50 560.50Q40 567 43 577Q43 577 47.50 592.50Q52 608 58.50 630Q65 652 71.50 674.50Q78 697 82.50 712.50Q87 728 87 728Z"  horiz-adv-x="397" vert-adv-y="2048"  />

      
      <glyph glyph-name="uni23" unicode="&#x23;" d="M682 374L682 374Q693 374 697 365Q701 356 697 347.50Q693 339 682 338Q628 337 575 334Q538 254 504 172Q543 168 583 161Q594 159 600 150Q606 141 605 129Q602 118 593 112Q584 106 573 108Q528 116 483 120Q465 77 449 33Q415-55 397-147Q388-177 365-180Q342-183 325.50-166Q309-149 321-120Q373-14 412 98Q416 110 421 123Q316 123 214 95L136-58Q131-67 122.50-66.50Q114-66 108.50-60Q103-54 107-45Q107-45 121-11Q135 23 158 77Q116 62 75 43Q60 37 50 45.50Q40 54 40 67.50Q40 81 54 88Q117 119 184 139Q199 175 215 213Q232 254 249 295Q184 283 121 266Q107 263 100 271.50Q93 280 94.50 291.50Q96 303 110 308Q188 327 268 341Q302 422 325.50 478Q349 534 349 534Q361 558 382.50 558Q404 558 418 541.50Q432 525 422 500L346 352Q432 364 519 369Q538 414 558 460Q583 519 607 577Q620 601 641.50 601Q663 601 676.50 584.50Q690 568 679 542Q635 458 593 372Q637 374 682 374M462 229L462 229Q482 279 503 329Q412 322 323 308L245 156Q341 178 440 175Q451 202 462 229Z"  horiz-adv-x="801" vert-adv-y="2048"  />

      
      <glyph glyph-name="uni25" unicode="&#x25;" d="M326 161L326 161Q338 177 357.50 184.50Q377 192 395 172Q408 148 400 113Q392 78 376 44Q360 10 348-9Q331-34 309.50-55Q288-76 255-81Q237-81 224.50-66.50Q212-52 212-35Q215 13 232.50 53.50Q250 94 272 133Q275 139 279 146Q300 171 326 161M258-38L258-38Q290-25 316 9.50Q342 44 357 86Q353 82 348 78Q283 36 258-38M365 115L365 115Q370 135 371 152Q362 147 356 138Q364 127 365 115M447 550L447 550Q466 559 484 549Q502 539 509.50 520.50Q517 502 504 486Q274 213 86-93Q78-103 66.50-101Q55-99 47.50-89Q40-79 46-66Q188 195 360 436Q294 419 232 416Q232 416 232 415Q232 415 232 415Q238 364 212 310Q186 256 145 232Q130 224 109.50 227Q89 230 73 244Q50 272 52 304.50Q54 337 63 365Q64 370 65 374Q76 412 100.50 445.50Q125 479 168 487Q191 489 205 475Q219 461 221 443Q282 458 342.50 490Q403 522 447 550M155 316L155 316Q162 323 174.50 340.50Q187 358 196.50 377.50Q206 397 206 412Q199 408 189 407Q161 397 143 361Q125 325 122 291Q130 294 137.50 300Q145 306 151 313Q153 315 155 316Z"  horiz-adv-x="617" vert-adv-y="2048"  />

      
      <glyph glyph-name="uni27" unicode="&#x27;" d="M87 718L87 718Q98 746 121 747Q144 748 158.50 730Q173 712 160 685L76 552Q70 544 61.50 544Q53 544 46.50 550.50Q40 557 43 567Q43 567 47.50 582.50Q52 598 58.50 620Q65 642 71.50 664.50Q78 687 82.50 702.50Q87 718 87 718Z"  horiz-adv-x="273" vert-adv-y="2048"  />

      
      <glyph glyph-name="uni28" unicode="&#x28;" d="M486 761L486 761Q491 754 489.50 745.50Q488 737 480 732Q244 574 148 306Q105 178 115 40Q125-98 208-208Q224-233 212-252Q200-271 177.50-273.50Q155-276 140-251Q40-43 72.50 175.50Q105 394 248 571Q338 685 457 767Q465 772 473 770.50Q481 769 486 761Z"  horiz-adv-x="591" vert-adv-y="2048"  />

      
      <glyph glyph-name="uni29" unicode="&#x29;" d="M427 725L427 725Q503 563 492 392Q481 221 400.50 67Q320-87 187-199Q132-246 70-284Q63-288 55.50-286Q48-284 44-278Q40-271 42-263.50Q44-256 50-252L50-252Q186-167 283.50-35.50Q381 96 419 252Q457 408 414 567Q395 631 358 686Q343 711 356 729Q369 747 391 748.50Q413 750 427 725Z"  horiz-adv-x="603" vert-adv-y="2048"  />

      
      <glyph glyph-name="uni2a" unicode="&#x2a;" d="M257 720L257 720Q264 724 270 720.50Q276 717 277 710.50Q278 704 272 699Q242 677 211 654Q191 640 171 625Q204 592 245 570Q250 567 252 561.50Q254 556 251 551Q246 543 238 544.50Q230 546 220 552Q210 558 201 564Q192 570 187 573Q172 583 158 595Q152 560 153 524Q153 518 148 515Q143 512 137.50 513.50Q132 515 130 522Q122 556 123 591Q91 568 57 548Q51 545 46.50 548Q42 551 41 556Q40 561 44 565Q82 598 123 627Q115 635 101.50 653Q88 671 81 687.50Q74 704 86 710Q90 712 94.50 710.50Q99 709 102 706Q119 683 137 662Q145 681 156 703.50Q167 726 179 739.50Q191 753 200 746Q204 743 205 738.50Q206 734 205 729Q188 697 176 664Q179 666 182 668Q193 675 203 682Q203 682 208.50 686Q214 690 222 695.50Q230 701 238 706.50Q246 712 251.50 716Q257 720 257 720Z"  horiz-adv-x="378" vert-adv-y="2048"  />

      
      <glyph glyph-name="uni2b" unicode="&#x2b;" d="M441 302L441 302Q451 303 455.50 295.50Q460 288 457.50 280.50Q455 273 444 271Q362 267 277 268Q262 202 239.50 137.50Q217 73 180 16Q172 5 160.50 6.50Q149 8 142.50 17.50Q136 27 142 40Q167 90 168.50 161.50Q170 233 130 272Q122 272 114 272Q89 272 65 279Q63 280 61 280Q56 281 51 283.50Q46 286 43 291Q40 296 42.50 301.50Q45 307 50 308Q109 320 143 292Q153 292 161 292Q187 291 213 291Q215 300 216 310Q225 376 239 441Q247 468 268.50 471.50Q290 475 306.50 461Q323 447 317 421Q299 361 284 299Q283 295 282 291Q363 291 441 302M196 192L196 192Q204 230 210 270Q201 270 192 270Q178 271 164 271Q188 238 196 192Z"  horiz-adv-x="560" vert-adv-y="2048"  />

      
      <glyph glyph-name="uni2c" unicode="&#x2c;" d="M148-15L148-15Q151 1 140.50 12Q130 23 114 21Q96 17 91.50 6.50Q87-4 87-17Q87-33 81-49.50Q75-66 52-81Q41-87 40.50-97Q40-107 47.50-114Q55-121 67-118Q83-113 97-103Q141-70 148-15Z"  horiz-adv-x="391" vert-adv-y="2048"  />

      
      <glyph glyph-name="uni2e" unicode="&#x2e;" d="M42-17L42-17Q47 7 67.50 17Q88 27 106 19.50Q124 12 123-17Q118-41 97.50-51Q77-61 58.50-53.50Q40-46 42-17Z"  horiz-adv-x="398" vert-adv-y="2048"  />

      
      <glyph glyph-name="uni2f" unicode="&#x2f;" d="M555 710L555 710Q573 730 593.50 724.50Q614 719 623.50 700Q633 681 617 659Q449 456 316 228Q183 0 71-238Q67-246 59-246.50Q51-247 45.50-241Q40-235 43-225Q145 22 269 259Q393 496 555 710Z"  horiz-adv-x="733" vert-adv-y="2048"  />

      
      <glyph glyph-name="uni30" unicode="&#x30;" d="M341 480L341 480Q351 384 323 281.50Q295 179 252 93Q232 52 202.50 15.50Q173-21 130-41Q64-66 37-20Q10 26 20 85Q50 268 157 420Q177 442 199 435Q199 435 200 436Q200 437 201 438Q204 444 208 452Q215 466 221 477Q245 521 284.50 527.50Q324 534 341 480M308 349L308 349Q310 362 313.50 390Q317 418 316 446.50Q315 475 305.50 489.50Q296 504 272 490Q250 470 238 438Q234 430 230 423Q229 420 227 417Q226 415 226 413Q238 391 217 367Q204 353 192 339Q184 322 177 305Q170 291 157 293Q89 194 63 79Q50-8 88.50-13Q127-18 178 39Q231 105 261.50 185.50Q292 266 308 349Z"  horiz-adv-x="361" vert-adv-y="2048"  />

      
      <glyph glyph-name="uni31" unicode="&#x31;" d="M216 527L216 527Q232 546 252 542Q272 538 282.50 521Q293 504 282 482Q132 232 40-47Q36-56 28.50-57Q21-58 15.50-53Q10-48 11-39Q54 142 122 316Q122 316 122 316Q122 316 122 316Q101 301 82 309.50Q63 318 57 338Q51 358 70 377Q151 438 211 519Q211 519 211 520Q211 520 211 520L211 520Q212 521 212 521Q214 524 216 527Z"  horiz-adv-x="303" vert-adv-y="2048"  />

      
      <glyph glyph-name="uni32" unicode="&#x32;" d="M482 531L482 531Q512 530 530 507.50Q548 485 541 455Q527 408 496 372Q494 370 492 367Q425 279 346.50 202Q268 125 185 52Q171 40 158 28Q221 36 285 38.50Q349 41 412 28Q425 24 428 13.50Q431 3 424.50-6.50Q418-16 405-14Q363-9 319-12Q229-20 141-40Q99-49 56-57Q56-57 54.50-57Q53-57 51.50-56.50Q50-56 48-56Q46-56 45-56Q44-56 44-56Q27-56 18.50-43.50Q10-31 12-16Q14-1 28 7Q265 176 454 397Q503 456 496 474.50Q489 493 451 485.50Q413 478 368 456Q306 423 257 372Q208 321 181 257Q176 246 167 245.50Q158 245 151.50 251.50Q145 258 148 269Q188 370 280 447Q372 524 482 531Z"  horiz-adv-x="558" vert-adv-y="2048"  />

      
      <glyph glyph-name="uni33" unicode="&#x33;" d="M230 504L230 504Q310 550 369 518Q428 486 413 391Q395 327 351.50 281Q308 235 253 201Q293 171 294 122Q290 56 242 11Q195-35 148-44Q101-53 66-42Q31-31 20.50-17Q10-3 36-2Q106-34 174 6Q242 46 252 121Q248 152 235.50 162Q223 172 210 174Q200 176 193.50 180Q187 184 186 195Q187 206 196 212Q207 222 219 231Q260 263 296 300Q324 328 344.50 363Q365 398 362 438Q359 459 344.50 470Q330 481 310 478Q264 471 225.50 442Q187 413 157 377Q129 346 114 307Q109 295 99 293.50Q89 292 80.50 298.50Q72 305 74 317Q94 377 135.50 424.50Q177 472 230 504Z"  horiz-adv-x="438" vert-adv-y="2048"  />

      
      <glyph glyph-name="uni34" unicode="&#x34;" d="M459 485L459 485Q474 479 479.50 465Q485 451 478 436Q425 328 378 217Q380 218 383 218Q387 219 391 220Q404 222 410 213.50Q416 205 414 195Q412 185 400 181Q379 177 359 173Q315 67 276-41Q271-53 261-54Q251-55 243.50-48Q236-41 239-29Q267 66 298 161Q167 137 35 128Q21 128 15.50 140Q10 152 20 162Q101 246 176 337Q252 427 319 523Q331 539 347 535.50Q363 532 371 518Q379 504 368 487Q239 319 87 172Q201 183 312 204Q313 206 314 209Q316 215 318 221Q363 344 412 465Q418 479 431.50 485Q445 491 459 485Z"  horiz-adv-x="495" vert-adv-y="2048"  />

      
      <glyph glyph-name="uni35" unicode="&#x35;" d="M411 490L411 490Q416 477 410 465Q404 453 390 449Q337 434 281 436Q260 437 240 442Q239 441 239 441Q234 433 230 426Q209 396 188 366Q172 345 157 323Q219 337 273 305Q338 255 330.50 176.50Q323 98 272 42Q233-1 178.50-22.50Q124-44 65-35Q63-34 60-33Q49-31 36.50-26.50Q24-22 17-14.50Q10-7 15 6Q19 12 25 14Q31 16 37 13Q108-6 172.50 33.50Q237 73 261 142Q285 226 234 259Q183 292 109 256Q101 253 94 255.50Q87 258 83 265Q78 277 86 286Q108 310 127 337Q164 390 194 448Q196 451 198 454Q186 458 175 464Q162 471 162.50 483Q163 495 172 502.50Q181 510 194 505Q208 499 224 495Q227 499 231 502Q239 507 248 503.50Q257 500 259 490Q317 487 371 508Q384 512 395 507Q406 502 411 490Z"  horiz-adv-x="426" vert-adv-y="2048"  />

      
      <glyph glyph-name="uni36" unicode="&#x36;" d="M437 534L437 534Q446 519 441.50 502.50Q437 486 421 477Q350 440 292 384Q274 371 239 330.50Q204 290 165 236Q223 252 274 236Q325 220 338 164Q339 125 321 92Q303 59 279 30Q223-39 136-58Q103-65 70.50-57.50Q38-50 23-16Q10 17 22 65Q34 113 62 168Q63 172 65 175Q66 176 67 177Q67 177 67 178Q109 256 160 325.50Q211 395 245 431Q304 496 381 547Q396 556 411.50 552.50Q427 549 437 534M285 91L285 91Q323 150 302 180.50Q281 211 232 214.50Q183 218 137 196Q94 133 70.50 77.50Q47 22 63-6.50Q79-35 154-17Q238 13 285 91Z"  horiz-adv-x="456" vert-adv-y="2048"  />

      
      <glyph glyph-name="uni37" unicode="&#x37;" d="M398 535L398 535Q415 542 427.50 533Q440 524 442.50 509Q445 494 433 482Q324 382 234 266Q263 268 282 263Q301 258 300 244Q299 236 293 231Q287 226 279 227Q244 232 208 231Q110 99 40-50Q37-56 31.50-58Q26-60 20-57Q14-55 12-49Q10-43 12-38Q68 100 148 227Q121 223 95 216Q88 215 84 220Q80 225 81 231Q82 237 89 240Q96 243 118 248Q140 253 168 258Q230 352 304 438Q240 426 176 435Q150 441 144 461.50Q138 482 150 499.50Q162 517 189 514Q296 495 398 535Z"  horiz-adv-x="455" vert-adv-y="2048"  />

      
      <glyph glyph-name="uni38" unicode="&#x38;" d="M289 526L289 526Q343 503 347.50 447Q352 391 324 345Q301 304 268 270Q286 240 294 204Q310 136 283 73Q256 10 195-24Q161-43 121-48.50Q81-54 48-31Q10 9 15.50 58.50Q21 108 51 154.50Q81 201 115 232Q149 262 189 284Q188 287 188 291Q187 294 185 296Q159 335 144 374.50Q129 414 147 459Q167 498 207 517.50Q247 537 289 526M172 11L172 11Q249 84 233 190Q228 223 211 253Q205 256 200 261Q198 264 196 266Q127 230 79.50 164.50Q32 99 43 24Q58-20 99.50-18Q141-16 172 11M301 409L301 409Q319 456 294.50 483Q270 510 222 489Q185 471 177 437.50Q169 404 194 369Q204 356 215 342Q219 337 223 332Q224 333 225 333Q238 339 249 348Q283 372 301 409Z"  horiz-adv-x="362" vert-adv-y="2048"  />

      
      <glyph glyph-name="uni39" unicode="&#x39;" d="M384 507L384 507Q397 496 398.50 480.50Q400 465 391 452Q391 452 391 452L391 452Q390 451 390 451Q390 451 390 451Q345 392 301 332Q257 271 216 209Q135 84 72-52Q68-59 61.50-59Q55-59 50-54.50Q45-50 48-42Q104 116 185 262Q148 235 108.50 212.50Q69 190 42 190Q15 195 12.50 218Q10 241 20 262Q78 405 210 488Q259 520 317 538Q335 543 347 536Q359 529 365 516Q375 514 384 507M50 229L50 229Q51 229 52 229Q197 311 293 449Q125 388 50 229Z"  horiz-adv-x="410" vert-adv-y="2048"  />

      
      <glyph glyph-name="uni3a" unicode="&#x3a;" d="M42 172L42 172Q47 196 67.50 206Q88 216 106 208.50Q124 201 122 172Q118 148 97.50 138Q77 128 58.50 136Q40 144 42 172M80 389L80 389Q85 413 105.50 423Q126 433 144 425.50Q162 418 161 389Q156 365 135.50 355Q115 345 96.50 352.50Q78 360 80 389Z"  horiz-adv-x="262" vert-adv-y="2048"  />

      
      <glyph glyph-name="uni3b" unicode="&#x3b;" d="M113 210L113 210Q129 212 139.50 201Q150 190 148 174Q140 119 96 86Q82 76 66 71Q54 68 47 75Q40 82 40.50 92Q41 102 51 108Q74 123 80 140Q86 157 86 172Q87 186 91.50 196Q96 206 113 210M116 389L116 389Q121 413 141.50 423Q162 433 180 425.50Q198 418 196 389Q191 365 170.50 355Q150 345 132 352.50Q114 360 116 389Z"  horiz-adv-x="298" vert-adv-y="2048"  />

      
      <glyph glyph-name="uni3c" unicode="&#x3c;" d="M418 453L418 453Q445 457 457.50 439.50Q470 422 464.50 401Q459 380 432 374Q267 349 128 256Q119 250 110 242Q101 234 96 226Q89 214 96 207.50Q103 201 117 198Q131 195 145 193Q156 192 162 190Q162 190 189 185.50Q216 181 250 175Q284 169 310.50 164Q337 159 337 159Q344 158 346 152Q348 146 345 141Q342 136 334 136Q334 136 316 137.50Q298 139 272 141.50Q246 144 219.50 146.50Q193 149 175 151Q157 153 157 153Q151 153 140 154Q130 155 124 156Q55 162 47.50 206.50Q40 251 90 293Q235 410 418 453Z"  horiz-adv-x="570" vert-adv-y="2048"  />

      
      <glyph glyph-name="uni3d" unicode="&#x3d;" d="M61 315L61 315Q49 317 44.50 326Q40 335 44 344.50Q48 354 60 356Q203 371 345 356Q353 355 357.50 349Q362 343 361 335Q359 321 338.50 317.50Q318 314 296 313Q282 313 274 312Q167 307 61 315M345 248L345 248Q353 246 357.50 240Q362 234 361 226Q359 213 338.50 209Q318 205 296 205Q282 204 274 203Q167 198 61 206Q49 208 44.50 217.50Q40 227 44 236Q48 245 60 247Q203 262 345 248Z"  horiz-adv-x="462" vert-adv-y="2048"  />

      
      <glyph glyph-name="uni3e" unicode="&#x3e;" d="M385 405L385 405Q454 399 462 354.50Q470 310 419 268Q274 151 92 108Q65 104 52.50 121.50Q40 139 45.50 160Q51 181 77 187Q237 211 372 299Q383 306 395 315.50Q407 325 414 335Q421 347 413.50 353.50Q406 360 392 363Q378 366 365 368Q353 369 347 371Q347 371 320.50 375.50Q294 380 260 386Q226 392 199 397Q172 402 172 402Q165 403 163.50 409Q162 415 165 420Q168 425 175 425Q175 425 193 423.50Q211 422 237.50 419.50Q264 417 290 414.50Q316 412 334 410Q352 408 352 408Q359 408 370 407Q380 406 385 405Z"  horiz-adv-x="570" vert-adv-y="2048"  />

      
      <glyph glyph-name="uni3f" unicode="&#x3f;" d="M272 883L272 883Q382 894 430.50 820Q479 746 446 646Q429 600 400 561Q371 522 338 486Q325 471 313 456Q240 375 192 278Q162 212 153 140Q152 134 147.50 130Q143 126 137 127Q131 128 127 133Q123 138 124 144Q131 181 140 218Q157 292 192 359.50Q227 427 270 489Q285 509 299 529Q328 567 353 607Q392 674 387 729.50Q382 785 337 812Q292 839 212 818Q145 794 107 734Q94 712 93 687Q94 684 94 682Q97 668 95 656.50Q93 645 77 639Q61 635 50.50 646.50Q40 658 44 674Q68 753 129.50 811Q191 869 272 883M101-21L101-21Q103 3 120.50 11Q138 19 155 11Q172 3 174-21Q172-45 155-53Q138-61 120.50-53Q103-45 101-21Z"  horiz-adv-x="579" vert-adv-y="2048"  />

      
      <glyph glyph-name="uni40" unicode="&#x40;" d="M594 620L594 620Q726 575 784.50 454.50Q843 334 794 203Q770 138 714.50 96Q659 54 589 63Q539 70 509.50 105.50Q480 141 474 189Q444 149 408 116Q369 78 313 82.50Q257 87 240 144Q235 187 255 223.50Q275 260 304 289Q337 322 380 341.50Q423 361 472 357Q504 351 509 325.50Q514 300 495 282Q502 282 507 277Q512 272 510 264Q510 264 510 264Q510 264 510 264L510 264Q499 214 519.50 166.50Q540 119 594 112Q655 112 692 152Q729 192 742 249.50Q755 307 743 359Q719 467 629 520Q539 573 432 565Q322 559 242 487.50Q162 416 125 315Q70 171 145 38Q187-40 263-82Q339-124 424-122Q509-120 580-65Q607-42 623-13Q631 3 647.50 8.50Q664 14 681 6Q702-6 704-29Q706-52 687-67Q597-141 486-155.50Q375-170 273.50-126.50Q172-83 111 18Q40 128 53.50 252Q67 376 142 480Q219 590 343 626Q467 662 594 620M369 142L369 142Q403 167 434 197.50Q465 228 481 267Q481 268 481 269Q482 270 482 272Q483 274 484 275Q474 271 460 273Q415 279 374 253.50Q333 228 309 189Q292 162 299.50 147.50Q307 133 327.50 131.50Q348 130 369 142Z"  horiz-adv-x="943" vert-adv-y="2048"  />

      
      <glyph glyph-name="uni41" unicode="&#x41;" d="M1858 1763L1858 1763Q1931 1758 1961 1709.50Q1991 1661 1993 1595Q1995 1529 1986 1473Q1949 1250 1884 1035Q1880 1021 1876 1006Q1838 873 1799 740Q1722 482 1652 223Q1671 221 1689 219Q1704 215 1707.50 203.50Q1711 192 1704 182Q1697 172 1682 174Q1661 178 1641 181Q1605 47 1574-89Q1517-339 1485-595.50Q1453-852 1499-1106Q1509-1150 1524-1191Q1531-1212 1523-1230Q1515-1248 1495-1256Q1474-1263 1455-1253.50Q1436-1244 1429-1222Q1416-1173 1408-1123Q1385-955 1399-785.50Q1413-616 1443-450Q1503-127 1589 190Q1238 246 881 239Q683-42 503.50-296Q324-550 207.50-715.50Q91-881 91-881Q70-906 44.50-901.50Q19-897 6-874.50Q-7-852 10-823Q19-809 235-503Q451-197 756 236Q687 233 618 228Q394 212 178 147Q142 139 124.50 161Q107 183 113.50 210.50Q120 238 157 245Q471 277 786 278Q907 451 1029 624Q1348 1076 1577.50 1401.50Q1807 1727 1818 1743Q1834 1763 1858 1763M1816 1023L1816 1023Q1818 1030 1821 1042Q1838 1108 1867 1241Q1896 1374 1906.50 1497Q1917 1620 1880 1656Q1850 1615 1566 1212Q1282 809 908 277Q1255 272 1600 230Q1643 389 1687 547Q1754 784 1816 1023Z"  horiz-adv-x="1888" vert-adv-y="2048"  />

      
      <glyph glyph-name="uni42" unicode="&#x42;" d="M1931-194L1931-194Q2108-302 2148.50-418Q2189-534 2110.50-639Q2032-744 1853-819Q1582-918 1230.50-957.50Q879-997 517-968Q502-1028 487-1089Q478-1125 470-1162Q443-1286 398-1406Q394-1416 384.50-1420Q375-1424 365-1420Q349-1413 349-1396Q348-1393 348-1389Q312-1165 283-940Q-121-878-410-708Q-424-699-427-684Q-430-669-422-655Q-413-641-397-638Q-381-635-367-644Q-266-715-150-764Q45-842 277-885Q264-773 256-661Q225-287 287.50 83.50Q350 454 539 782Q683 1033 900.50 1235.50Q1118 1438 1396 1526Q1462 1677 1527 1827Q1543 1856 1569 1856.50Q1595 1857 1612 1837Q1629 1817 1616 1785Q1556 1669 1498 1551Q1525 1557 1552 1561Q1675 1577 1799 1546Q1923 1515 2004 1414Q2065 1332 2079 1232Q2093 1132 2081 1033Q2048 809 1894.50 622Q1741 435 1528.50 289Q1316 143 1105 41Q1148 40 1191 36Q1386 15 1573.50-40.50Q1761-96 1931-194M587 755L587 755Q438 504 372 231Q306-42 301-326Q296-610 329-895Q391-905 453-912Q600-411 790 75.50Q980 562 1185 1042Q1273 1246 1363 1450Q1112 1359 916 1171Q720 983 587 755M410-1070L410-1070Q424-1015 440-961Q387-955 336-948Q352-1084 374-1217Q388-1152 405-1086Q407-1078 410-1070M2062-506L2062-506Q2066-458 2038.50-418Q2011-378 1976-346Q1865-249 1691.50-166Q1518-83 1332.50-38.50Q1147 6 1000-12Q989-15 978-18Q964-24 951-30L950-29Q947-31 943-33Q927-36 914-28Q901-20 897-5Q893 10 899.50 22Q906 34 919 40Q1084 119 1241 213Q1393 303 1557.50 426.50Q1722 550 1845.50 704.50Q1969 859 2000 1043Q2034 1285 1918 1402Q1802 1519 1559 1497Q1509 1490 1461 1479Q1173 901 933 302.50Q693-296 529-921Q871-953 1208.50-909.50Q1546-866 1818-742Q1896-704 1968.50-648Q2041-592 2062-506Z"  horiz-adv-x="2305" vert-adv-y="2048"  />

      
      <glyph glyph-name="uni43" unicode="&#x43;" d="M1951-159L1951-159Q1958-118 1987.50-111Q2017-104 2040-124.50Q2063-145 2049-184Q1942-363 1762.50-542Q1583-721 1361.50-868Q1140-1015 907-1097.50Q674-1180 459-1165Q355-1156 258-1117Q137-1068 86-961Q35-854 30-731Q18-513 73-302.50Q128-92 227 100Q423 480 693.50 813Q964 1146 1312 1397Q1412 1467 1530.50 1522Q1649 1577 1774 1561Q1821 1552 1859.50 1521.50Q1898 1491 1916 1446Q1934 1390 1928.50 1332Q1923 1274 1908 1219Q1797 797 1515 460Q1501 444 1481 442.50Q1461 441 1444 454Q1427 469 1426 490Q1425 511 1441 528Q1601 693 1711.50 899Q1822 1105 1863 1333Q1868 1379 1854 1423Q1823 1484 1765.50 1495Q1708 1506 1644 1487.50Q1580 1469 1530 1442Q1334 1332 1151 1162Q968 992 808 796.50Q648 601 521 416Q398 233 295 32Q192-169 140.50-384.50Q89-600 120-825Q131-888 161.50-943.50Q192-999 247-1033Q305-1063 367-1079Q549-1121 735.50-1081Q922-1041 1096.50-953Q1271-865 1418-761Q1505-698 1624.50-597Q1744-496 1839.50-380Q1935-264 1951-159Z"  horiz-adv-x="2142" vert-adv-y="2048"  />

      
      <glyph glyph-name="uni44" unicode="&#x44;" d="M1919 1121L1919 1121Q2111 911 2167.50 634.50Q2224 358 2164 84Q2098-227 1923-472Q1748-717 1497-885.50Q1246-1054 950.50-1136Q655-1218 349-1203Q128-1196 52-1103Q-24-1010 16.50-875Q57-740 186-606Q244-545 309-493Q367-182 485.50 167.50Q604 517 781.50 838Q959 1159 1192 1386Q1178 1388 1163 1389Q916 1408 688 1312Q491 1227 347.50 1060Q204 893 171 679Q157 558 209 449Q221 419 203.50 401Q186 383 161 386.50Q136 390 127 422Q94 596 143 762Q192 928 301 1066Q410 1204 555 1297Q706 1391 880 1430Q1068 1471 1261 1447Q1385 1553 1524.50 1617.50Q1664 1682 1817 1696Q1927 1703 2035 1681Q2056 1676 2067 1659.50Q2078 1643 2074 1622Q2069 1601 2052 1590Q2035 1579 2013 1583Q1834 1620 1672.50 1576.50Q1511 1533 1370 1428Q1690 1356 1919 1121M2070 103L2070 103Q2111 310 2085.50 520Q2060 730 1955 915Q1847 1095 1673.50 1211Q1500 1327 1296 1370Q1089 1188 928.50 931Q768 674 656 405Q544 136 483-80Q435-250 402-425Q620-280 877-228Q1068-189 1262-214Q1327-223 1390-239Q1408-244 1416.50-259Q1425-274 1421-292Q1416-310 1400.50-318.50Q1385-327 1367-322Q1309-305 1250-295Q1023-260 800.50-316Q578-372 389-502Q363-665 363-830Q361-864 336.50-875Q312-886 288-874.50Q264-863 263-828Q272-711 295-574Q257-606 222-641Q145-714 91-806Q20-931 49-1029.50Q78-1128 228-1159Q381-1183 536-1171Q808-1153 1062-1054Q1446-907 1717-605.50Q1988-304 2070 103Z"  horiz-adv-x="2410" vert-adv-y="2048"  />

      
      <glyph glyph-name="uni45" unicode="&#x45;" d="M2448 1581L2448 1581Q2452 1541 2426 1526.50Q2400 1512 2373 1524.50Q2346 1537 2347 1577Q2349 1617 2313.50 1633.50Q2278 1650 2243 1655Q2163 1665 2082.50 1655Q2002 1645 1923 1629Q1794 1603 1668 1566Q1160 1419 762 1066.50Q364 714 160 226Q135 160 123 90Q111 20 119-51Q134-167 205.50-237.50Q277-308 395-311Q519-309 635-263Q754-218 869-156Q888-146 907-152Q926-158 937-177Q946-195 940.50-214Q935-233 917-243Q917-244 917-244Q917-244 916-244L916-244Q911-247 906-249Q830-291 721.50-378Q613-465 511.50-575.50Q410-686 354.50-795.50Q299-905 329-991Q359-1053 424.50-1069Q490-1085 555-1078Q719-1057 872-990.50Q1025-924 1166-838Q1251-785 1342-715Q1433-645 1506.50-561Q1580-477 1614-379Q1625-348 1651.50-344Q1678-340 1698-357Q1718-374 1711-407Q1668-487 1606-550Q1544-613 1476-670Q1471-674 1466-678Q1379-753 1243.50-842.50Q1108-932 951-1008Q794-1084 644.50-1117.50Q495-1151 381-1113Q309-1085 275-1015Q238-927 276.50-818Q315-709 400-597Q485-485 587-386Q501-410 415-412Q329-414 245-382Q154-344 97.50-265Q41-186 26-91Q6 34 38 154.50Q70 275 127 385Q362 840 760.50 1162Q1159 1484 1652 1621Q1794 1661 1938.50 1689.50Q2083 1718 2232 1718Q2304 1719 2367.50 1689.50Q2431 1660 2448 1581Z"  horiz-adv-x="1771" vert-adv-y="2048"  />

      
      <glyph glyph-name="uni46" unicode="&#x46;" d="M1881 237L1881 237Q1914 237 1927 214.50Q1940 192 1931 167Q1922 142 1889 136Q1626 162 1361 137Q1246-190 1100-506Q1044-697 942-882Q840-1067 750-1196Q736-1216 722-1236Q706-1255 686.50-1252Q667-1249 656.50-1232.50Q646-1216 657-1193Q892-751 1089-291Q1090-163 1005.50-80.50Q921 2 722 14Q695 15 668 15Q628 14 588 19Q579 21 571 25Q563 29 558 37Q550 57 562.50 69Q575 81 592 85Q792 129 997 146Q1056 152 1116 159Q1188 166 1271 174Q1365 435 1438 702Q1511 969 1552 1243Q1553 1251 1555 1260Q1567 1326 1564.50 1398.50Q1562 1471 1510 1514Q1450 1535 1384 1529Q1379 1529 1375 1529Q1245 1521 1118 1490Q954 1451 784.50 1389.50Q615 1328 462 1237Q309 1146 195 1019Q139 956 100 878.50Q61 801 63 716Q72 608 141 525.50Q210 443 305 398Q423 344 552 328Q638 317 727 312Q762 306 770.50 280Q779 254 764 231.50Q749 209 714 213Q595 234 473.50 267.50Q352 301 247.50 363Q143 425 75 535Q-30 712 59 896Q146 1057 287 1171Q428 1285 595.50 1364.50Q763 1444 930 1501Q1005 1526 1130 1558.50Q1255 1591 1377 1600Q1499 1609 1564 1565Q1635 1498 1639.50 1404Q1644 1310 1628 1219Q1626 1203 1624 1188Q1546 675 1377 185Q1422 190 1468 195Q1696 219 1881 237M1163-111L1163-111Q1210 8 1254 128Q1187 122 1121 115Q1063 107 1004 100Q869 85 736 62Q918 44 1009.50-29Q1101-102 1122-212Q1143-162 1163-111Z"  horiz-adv-x="2046" vert-adv-y="2048"  />

      
      <glyph glyph-name="uni47" unicode="&#x47;" d="M1732 385L1732 385Q1745 386 1750.50 376.50Q1756 367 1752.50 357Q1749 347 1735 344Q1654 340 1575 321Q1490 301 1408 272Q1317-95 1172-443Q1027-791 807-1098Q804-1102 802-1105Q740-1193 668.50-1274Q597-1355 501-1408Q403-1458 306-1436.50Q209-1415 143-1327Q65-1210 80.50-1053Q96-896 162-743Q228-590 302-484Q438-286 615-123Q706-45 807 19Q908 83 1014 139Q1173 220 1341 286Q1510 857 1606 1444Q1564 1425 1529 1390Q1521 1383 1514 1377Q1439 1305 1367 1228Q1399 1119 1376.50 1001.50Q1354 884 1299 775Q1283 747 1258.50 748.50Q1234 750 1220 770.50Q1206 791 1221 819Q1276 899 1307 992Q1338 1085 1324 1181Q1127 964 942 736Q854 630 768 528Q695 441 623 354Q523 232 419.50 114Q316-4 201-112Q137-167 82-145.50Q27-124 12-40Q-1 132 63.50 367Q128 602 248 840.50Q368 1079 523 1260Q678 1441 845 1504Q951 1537 1058 1507.50Q1165 1478 1248 1408Q1318 1346 1351 1272Q1416 1342 1485 1408Q1494 1416 1503 1424Q1545 1468 1602 1489Q1621 1493 1637 1482Q1653 1471 1652 1451Q1622 1302 1594 1153Q1587 1116 1580 1079Q1527 800 1467 523Q1444 418 1418 314Q1571 367 1732 385M308 69L308 69Q584 372 845 687Q998 870 1154 1050Q1170 1069 1186 1087Q1248 1159 1312 1230Q1277 1327 1194.50 1388.50Q1112 1450 1011 1465Q896 1482 798 1415Q643 1304 502.50 1086Q362 868 256 625.50Q150 383 99 197Q90 165 78 93.50Q66 22 72.50-37Q79-96 126-94Q157-79 184-54Q190-48 195-44Q254 10 308 69M1613 1446L1613 1446Q1613 1446 1613 1446Q1613 1446 1613 1446Q1613 1446 1613 1446Q1613 1446 1613 1446M773-1019L773-1019Q952-722 1089-405Q1226-88 1328 242Q1142 171 968.50 73.50Q795-24 647-157Q547-255 461-366Q362-494 287.50-638.50Q213-783 176-940Q157-1030 155-1125.50Q153-1221 197-1304Q266-1403 367-1396Q468-1389 551-1313Q616-1254 667.50-1181Q719-1108 764-1033Q769-1026 773-1019Z"  horiz-adv-x="1817" vert-adv-y="2048"  />

      
      <glyph glyph-name="uni48" unicode="&#x48;" d="M2165 1706L2165 1706Q2222 1735 2262 1706.50Q2302 1678 2305 1629.50Q2308 1581 2256 1548Q2205 1504 2163 1448Q2154 1437 2144 1426Q1957 1183 1801 917Q1639 645 1504 358Q1635 424 1762 496Q1792 510 1813.50 495Q1835 480 1837.50 454Q1840 428 1813 409Q1636 340 1462 265Q1273-152 1178-599Q1139-800 1138-1005Q1137-1210 1198-1406Q1204-1426 1195-1444Q1186-1462 1166-1469Q1146-1476 1128-1467Q1110-1458 1103-1438Q1065-1221 1075-1006Q1093-689 1166-383Q1239-77 1353 218Q961 44 575-142Q373-237 172-332Q139-516 118-702Q112-734 87-742.50Q62-751 40-737Q18-723 19-690Q19-688 20-686L33-621Q58-496 86-372Q-67-445-213-517Q-234-525-248.50-513.50Q-263-502-263-483.50Q-263-465-242-453Q-71-378 102-299Q176 23 269 340Q408 815 599 1272Q612 1303 626 1334Q638 1356 658.50 1355.50Q679 1355 691.50 1339.50Q704 1324 694 1300Q535 977 422 636Q272 196 184-262Q415-157 641-52Q785 16 929 83Q1158 188 1384 298Q1524 645 1695 976Q1700 985 1704 994Q1795 1166 1893 1334Q1991 1502 2110 1656Q2133 1685 2165 1706Z"  horiz-adv-x="1959" vert-adv-y="2048"  />

      
      <glyph glyph-name="uni49" unicode="&#x49;" d="M806 1492L806 1492Q829 1423 831.50 1351Q834 1279 829 1207Q828 1195 828 1184Q772 663 635 157Q498-349 309-836Q253-975 186-1110Q176-1129 157-1135.50Q138-1142 119-1133Q100-1123 94-1104Q88-1085 97-1066Q228-803 328-525Q478-109 594.50 320Q711 749 762 1189Q773 1297 763 1404Q762 1411 761 1418Q757 1443 749 1467Q741 1491 721 1503Q671 1511 624.50 1495Q578 1479 536 1449Q420 1361 335 1241.50Q250 1122 185 992Q108 847 72 686Q36 525 74 362Q102 241 176.50 141Q251 41 369-4Q402-19 402-47Q402-75 380-92.50Q358-110 325-94Q153 14 76.50 198.50Q0 383 14 580Q24 694 60.50 801.50Q97 909 146 1011Q196 1113 269.50 1230Q343 1347 438 1440Q533 1533 649 1562Q701 1572 743 1558.50Q785 1545 806 1492Z"  horiz-adv-x="947" vert-adv-y="2048"  />

      
      <glyph glyph-name="uni4a" unicode="&#x4a;" d="M1157-99L1157-99Q1190-89 1209-108.50Q1228-128 1224.50-154.50Q1221-181 1189-194Q1078-228 975-295Q883-548 774-794Q665-1040 528-1272Q521-1284 513-1296Q464-1376 401-1455Q338-1534 256-1576Q243-1580 229.50-1576Q216-1572 205-1565Q161-1527 161.50-1467Q162-1407 175-1355Q175-1351 176-1348Q237-1123 351-920Q465-717 609-536Q712-410 835-302Q833-302 832-302Q830-302 829-302Q637-299 462-215.50Q287-132 167.50 16Q48 164 24 361Q4 573 91 755Q178 937 327.50 1083.50Q477 1230 646 1336Q769 1417 903 1476.50Q1037 1536 1181 1563Q1288 1580 1329 1490.50Q1370 1401 1362.50 1241.50Q1355 1082 1318 891.50Q1281 701 1232 518Q1183 335 1140.50 197.50Q1098 60 1080 6Q1051-80 1021-167Q1086-128 1157-99M734-210L734-210Q824-216 912-202Q1118 382 1234 987Q1260 1130 1267 1275Q1270 1345 1259 1412Q1256 1429 1249 1445.50Q1242 1462 1232 1472Q1227 1476 1221 1477Q1215 1478 1208 1477Q1198 1476 1188 1474Q1180 1472 1173 1471Q912 1419 660.50 1264Q409 1109 242 901Q102 724 75.50 510Q49 296 174 103Q270-37 418-117.50Q566-198 734-210M645-887L645-887Q750-643 843-394Q664-551 525.50-754Q387-957 300-1149Q284-1182 255-1265Q226-1348 215-1426.50Q204-1505 242-1525Q317-1476 387.50-1373.50Q458-1271 518-1152.50Q578-1034 621-937Q634-910 645-887Z"  horiz-adv-x="1483" vert-adv-y="2048"  />

      
      <glyph glyph-name="uni4b" unicode="&#x4b;" d="M1636 1297L1636 1297Q1651 1281 1650 1260.50Q1649 1240 1633 1225Q1329 951 1049 648.50Q769 346 545 2Q898-111 1110-391Q1322-671 1361-1035Q1370-1115 1371-1197Q1369-1230 1346-1241.50Q1323-1253 1298.50-1243Q1274-1233 1271-1200Q1280-1090 1272-981Q1244-652 1049-396.50Q854-141 535-44Q488-268 447-493Q445-503 436.50-509Q428-515 418-513Q407-511 401.50-503Q396-495 397-484Q433-257 476-30Q269 13 69-42Q48-47 30.50-37.50Q13-28 7-7Q1 17 14.50 36Q28 55 53 57Q273 72 485 19Q566 439 684 850.50Q802 1262 998 1644Q1016 1672 1042.50 1670Q1069 1668 1084.50 1647.50Q1100 1627 1087 1596Q901 1255 781 884.50Q661 514 575 135Q786 455 1037.50 744Q1289 1033 1565 1298Q1581 1313 1601 1312.50Q1621 1312 1636 1297Z"  horiz-adv-x="1476" vert-adv-y="2048"  />

      
      <glyph glyph-name="uni4c" unicode="&#x4c;" d="M1405-446L1405-446Q1435-428 1458.50-442Q1482-456 1485.50-483Q1489-510 1459-531Q1386-567 1253-645Q1113-726 939-820Q765-914 592.50-988.50Q420-1063 283.50-1086.50Q147-1110 80-1050Q22-982 11-873.50Q0-765 6-677Q15-543 41.50-411Q68-279 102-149Q206 240 362 612Q518 984 748 1315Q828 1426 927 1522Q943 1537 962.50 1537Q982 1537 998 1522Q1022 1495 1006 1463Q1006 1462 990 1433Q974 1404 950 1359.50Q926 1315 900 1268Q869 1209 846.50 1167.50Q824 1126 823 1124Q812 1106 793 1100.50Q774 1095 755 1104Q747 1109 742 1115Q484 694 305.50 176.50Q127-341 80-749Q68-844 81-938Q88-982 113-1017Q153-1054 208-1054.50Q263-1055 313-1044Q490-1001 651.50-919Q813-837 967-743Q1194-607 1405-446Z"  horiz-adv-x="1146" vert-adv-y="2048"  />

      
      <glyph glyph-name="uni4d" unicode="&#x4d;" d="M2494 1890L2494 1890Q2364 1631 2237 1362Q2158 1197 2079 1033Q1951 590 1895 136Q1839-318 1856-647Q1863-787 1883.50-934Q1904-1081 1953.50-1218Q2003-1355 2097-1464Q2111-1481 2104.50-1498.50Q2098-1516 2081-1522.50Q2064-1529 2046-1513Q2005-1469 1973-1419Q1837-1185 1799-829.50Q1761-474 1799.50-65.50Q1838 343 1930 736Q1824 525 1712 317Q1600 109 1474-90Q1465-103 1455-117Q1410-187 1342-276Q1274-365 1195-424Q1116-483 1037-465Q999-450 987-396.50Q975-343 976.50-277.50Q978-212 984-160Q986-135 987-118Q1011 105 1047 325Q1068 465 1092 606Q1124 790 1150.50 974.50Q1177 1159 1187 1346Q1188 1358 1189 1372Q1191 1395 1191 1416Q1191 1437 1184 1446Q1104 1479 1017.50 1420Q931 1361 847.50 1245.50Q764 1130 691.50 996Q619 862 565.50 745.50Q512 629 486 567Q247-2 72-595Q65-614 47.50-617.50Q30-621 16-610.50Q2-600 4-579Q4-579 10-538.50Q16-498 24.50-439Q33-380 42-321.50Q51-263 57-222.50Q63-182 63-182Q92 15 116 213Q140 411 152 610Q163 808 146 1005Q146 1028 162 1037Q178 1046 195.50 1040Q213 1034 216 1011Q238 701 206.50 386.50Q175 72 125-240Q275 177 451 583Q536 778 634 968.50Q732 1159 859 1332Q899 1387 953.50 1439Q1008 1491 1073 1516Q1138 1541 1211 1514Q1211 1514 1218 1509.50Q1225 1505 1236 1492Q1247 1479 1258 1453Q1269 1427 1279 1385Q1292 1303 1279 1221Q1277 1207 1276 1193Q1244 922 1193 656Q1188 629 1183 603Q1169 527 1154 445Q1097 151 1059-126Q1043-234 1045-342Q1045-342 1045-342Q1046-359 1049-376Q1052-393 1059-405Q1144-409 1255.50-290.50Q1367-172 1492.50 30Q1618 232 1745.50 478.50Q1873 725 1992 976Q2127 1453 2299 1745Q2356 1844 2437 1930Q2448 1941 2462 1941Q2476 1941 2487 1931Q2504 1912 2494 1890Z"  horiz-adv-x="2416" vert-adv-y="2048"  />

      
      <glyph glyph-name="uni4e" unicode="&#x4e;" d="M2103 1810L2103 1810Q2135 1672 2128 1531Q2122 1348 2095 1168Q2068 988 2029 809Q1971 546 1876 232Q1781-82 1646-375Q1511-668 1332-868Q1179-1011 1073-994.50Q967-978 896.50-862.50Q826-747 780-592Q697-311 649-22.50Q601 266 565 557Q551 664 536 771Q526 754 517 737Q367 372 275.50-15Q184-402 121-791Q106-889 96.50-987.50Q87-1086 92-1184Q91-1218 67-1228Q43-1238 21-1225Q-1-1212 2-1178Q31-1031 54-883Q62-833 70-783Q126-456 202-132Q218-70 233-6Q283 206 343.50 416Q404 626 494 825Q495 826 495 827Q504 846 518 864Q532 882 555 889Q601 900 615 854Q649 653 679 445Q701 289 725 138Q733 95 740 52Q772-147 815-344.50Q858-542 933-728Q935-732 937-735Q959-785 990.50-833.50Q1022-882 1072-900Q1156-904 1233.50-837Q1311-770 1373.50-680Q1436-590 1475-523Q1714-83 1877 475Q2040 1033 2070 1533Q2072 1609 2066.50 1685.50Q2061 1762 2035 1834Q1991 1941 1919.50 1964Q1848 1987 1747 1932Q1673 1888 1620 1820Q1567 1752 1522 1673Q1505 1649 1481.50 1651Q1458 1653 1444.50 1672.50Q1431 1692 1444 1719Q1501 1794 1570 1868Q1639 1942 1723.50 1988Q1808 2034 1911 2024Q1990 2009 2036.50 1945.50Q2083 1882 2103 1810M564 804L564 804Q568 804 571 805Q574 806 575 808Q575 810 573.50 809.50Q572 809 569 808Q567 806 564 804Z"  horiz-adv-x="2198" vert-adv-y="2048"  />

      
      <glyph glyph-name="uni4f" unicode="&#x4f;" d="M1766 895L1766 895Q1814 568 1745 244.50Q1676-79 1520-368Q1428-539 1307-692Q1186-845 1027-958Q900-1049 748-1088Q596-1127 444-1082Q262-1019 164-890Q66-761 35.50-594Q5-427 25-251.50Q45-76 98 80Q176 338 325 562Q338 580 351 597Q368 824 455.50 1040.50Q543 1257 701 1421Q826 1546 999 1585Q1119 1607 1240 1584.50Q1361 1562 1462 1490Q1601 1383 1671 1224Q1741 1065 1766 895M1675 374L1675 374Q1707 546 1699.50 748.50Q1692 951 1628.50 1134Q1565 1317 1429.50 1429.50Q1294 1542 1071 1534Q922 1523 803.50 1437.50Q685 1352 599 1219.50Q513 1087 460.50 936.50Q408 786 390 646Q444 709 510 762Q522 771 536 769.50Q550 768 559 756Q568 744 566.50 730Q565 716 553 707Q456 626 382 523Q386 409 428.50 293.50Q471 178 540 96Q625-6 754-27Q883-41 997.50 22Q1112 85 1164 204Q1176 227 1196 226Q1216 225 1227.50 208.50Q1239 192 1226 170Q1143 57 1017-5Q891-67 751-54Q647-40 568.50 28.50Q490 97 443 188Q371 326 352 479Q253 327 190.50 154Q128-19 95-190Q70-323 74.50-464.50Q79-606 129-733.50Q179-861 291-951Q416-1045 545.50-1055Q675-1065 798.50-1010Q922-955 1028-854Q1280-612 1447-291Q1614 30 1675 374Z"  horiz-adv-x="2032" vert-adv-y="2048"  />

      
      <glyph glyph-name="uni50" unicode="&#x50;" d="M2773 1695L2773 1695Q2966 1638 3062.50 1520.50Q3159 1403 3177.50 1250.50Q3196 1098 3155 935.50Q3114 773 3032 625Q2911 404 2717 213.50Q2523 23 2282.50-111Q2042-245 1781.50-294Q1521-343 1266-280Q1151-651 1026-1019Q995-1109 965-1200Q958-1220 940-1229Q922-1238 902-1231Q880-1224 871.50-1204Q863-1184 872-1163Q1005-873 1105-571Q1156-417 1203-262Q1130-238 1060-204Q792-67 642 195Q548 365 517 558Q513 591 534 606.50Q555 622 580.50 616Q606 610 615 578Q610 441 650 308Q690 182 770 76Q853-34 967.50-110.50Q1082-187 1213-228Q1314 109 1385 452Q1413 589 1433 728Q1453 867 1456 1007Q1459 1040 1483.50 1051Q1508 1062 1531.50 1050Q1555 1038 1556 1003Q1538 787 1492 575Q1403 160 1277-246Q1301-252 1326-257Q1594-303 1865-223Q2136-143 2376.50 29Q2617 201 2793 430Q2969 659 3046 910Q3120 1169 3063.50 1333Q3007 1497 2859 1579Q2711 1661 2511 1674Q2311 1687 2099 1645Q1835 1594 1589 1486Q1284 1351 1005 1166Q726 981 493 742Q404 650 320 533Q236 416 181 286Q126 156 124 23Q122-110 199-234Q256-321 349-360.50Q442-400 544-383Q577-380 591.50-402Q606-424 599-449Q592-474 560-482Q356-507 223.50-404.50Q91-302 45.50-130.50Q0 41 56 222Q135 463 308 671.50Q481 880 700 1048.50Q919 1217 1135 1339Q1465 1520 1827 1622Q2057 1691 2297 1722Q2537 1753 2773 1695Z"  horiz-adv-x="3246" vert-adv-y="2048"  />

      
      <glyph glyph-name="uni51" unicode="&#x51;" d="M2319-935L2319-935Q2352-940 2361.50-964.50Q2371-989 2358.50-1012Q2346-1035 2312-1035Q2032-989 1748-972Q1501-956 1253-959Q1055-1059 834-1074Q658-1078 546-1008Q476-1017 407-1027Q407-1028 407-1028Q407-1029 407-1031Q407-1052 393.50-1066.50Q380-1081 359-1083L59-1093L55-1093Q23-1092 11-1069.50Q-1-1047 8-1023Q17-999 49-994Q259-972 475-952Q331-801 344-528Q351-326 413-133Q454-7 513 111Q433 175 370 260Q268 395 245 554.50Q222 714 284 871Q372 1081 543 1228.50Q714 1376 925 1453Q1174 1540 1385 1497Q1596 1454 1757 1315Q1918 1176 2016.50 976Q2115 776 2139 548Q2163 320 2099 97Q2010-194 1835.50-446Q1661-698 1407-870Q1380-888 1351-905Q1836-899 2319-935M432-798L432-798Q468-893 538-947Q649-937 757-930Q991-913 1226-907Q1489-762 1673.50-518.50Q1858-275 1963 5Q2097 350 2011 712Q1952 961 1798.50 1144.50Q1645 1328 1426 1399.50Q1207 1471 950 1384Q777 1324 629.50 1213.50Q482 1103 386 947Q286 780 294 604.50Q302 429 420 274Q473 208 536 155Q680 423 894 639Q1110 857 1371 1018Q1387 1027 1404 1023Q1421 1019 1431 1004Q1441 987 1436.50 970Q1432 953 1416 943Q1161 792 949 584Q737 376 593 116Q592 115 592 114Q592 113 591 113Q817-40 1096.50-61.50Q1376-83 1633 4Q1702 27 1762 63Q1778 73 1795.50 69Q1813 65 1823 49Q1833 33 1829 16Q1825-1 1809-11Q1770-30 1730-43Q1730-43 1729-43Q1544-101 1351-112Q1147-127 943-85Q739-43 569 70Q435-188 405-476Q397-557 401-639Q405-721 432-798M976-1005L976-1005Q1044-988 1107-963Q934-969 761-984Q696-990 630-998Q711-1027 800.50-1027.50Q890-1028 976-1005Z"  horiz-adv-x="2417" vert-adv-y="2048"  />

      
      <glyph glyph-name="uni52" unicode="&#x52;" d="M2651-329L2651-329Q2671-324 2687.50-333Q2704-342 2710-362Q2716-385 2703-403Q2690-421 2666-422Q2625-424 2585-426Q2518-428 2452-430Q2270-437 2072.50-416Q1875-395 1694-325.50Q1513-256 1382-119Q1323-148 1263-176Q1234-278 1210-380Q1191-457 1171-533Q1155-591 1138-649Q1136-675 1131-700Q1104-847 1037-978Q1031-990 1019-994Q1007-998 995-993Q984-987 980-976.50Q976-966 979-955Q982-946 985-936Q1039-750 1087-563Q1082-472 1049-407Q1016-342 967-304Q861-346 751-373Q697-387 639-387Q619-384 623-366Q627-348 640.50-327.50Q654-307 662-297Q662-296 663-296Q719-228 801.50-218Q884-208 960-247Q997-230 1034-213Q1110-176 1186-138Q1232 37 1282 211Q1284 220 1287 229L1288 228Q1288 229 1289 230Q1289 232 1289 234Q1302 260 1326 262Q1350 264 1367 247.50Q1384 231 1378 201Q1357 137 1337 72Q1341 44 1350 18Q1362-11 1377-37Q1768 177 2131 434Q2303 556 2464.50 691.50Q2626 827 2761 988Q2927 1188 2905 1335Q2883 1482 2621 1567Q2308 1663 1965.50 1616Q1623 1569 1295.50 1414.50Q968 1260 698.50 1032Q429 804 260 537Q200 438 160 329.50Q120 221 113 105Q110 30 126-42Q130-73 110-88Q90-103 65.50-97.50Q41-92 33-61Q5 128 63.50 303Q122 478 232.50 632Q343 786 472 913Q751 1182 1108.50 1381.50Q1466 1581 1860 1657.50Q2254 1734 2642 1636Q2740 1610 2830 1558.50Q2920 1507 2970 1414Q3015 1305 2982.50 1191.50Q2950 1078 2871.50 971Q2793 864 2700 773Q2607 682 2530 617Q2016 197 1422-99Q1500-187 1608.50-241.50Q1717-296 1829-327Q2031-378 2240.50-380.50Q2450-383 2651-329M1311-12L1311-12Q1300-48 1290-84Q1313-72 1336-59Q1321-35 1311-12M839-297L839-297Q873-284 906-270Q841-245 777.50-264Q714-283 672-348Q748-333 821-304Q830-300 839-297M1132-366L1132-366Q1148-293 1165-221Q1112-245 1058-268Q1037-277 1016-285Q1088-350 1116-439Q1125-403 1132-366Z"  horiz-adv-x="2802" vert-adv-y="2048"  />

      
      <glyph glyph-name="uni53" unicode="&#x53;" d="M2554 1834L2554 1834Q2642 1815 2668.50 1752.50Q2695 1690 2680.50 1613.50Q2666 1537 2630 1475Q2610 1446 2583.50 1449Q2557 1452 2542.50 1474.50Q2528 1497 2545 1526Q2566 1557 2583.50 1599.50Q2601 1642 2601.50 1683Q2602 1724 2569 1749Q2546 1762 2518.50 1762.50Q2491 1763 2464 1759Q2421 1753 2379 1745Q2120 1689 1874 1591Q1607 1485 1301 1328.50Q995 1172 724.50 970.50Q454 769 291 530Q250 464 228 388Q206 312 221 240.50Q236 169 306 116Q375 67 455 36.50Q535 6 618-18Q703-42 785-73Q796-78 807-82Q1083 151 1397 304Q1459 332 1526 352Q1544 357 1554 345.50Q1564 334 1561.50 319Q1559 304 1541 298Q1413 264 1295.50 203Q1178 142 1069 68Q955-12 845-100Q898-125 939-166Q1001-233 1017.50-321Q1034-409 1010-495Q983-590 924.50-668.50Q866-747 794-812Q674-919 536-1002Q398-1085 243-1132Q192-1146 128.50-1147Q65-1148 30-1103Q3-1045 41-958.50Q79-872 140.50-786.50Q202-701 247-646Q254-637 260-629Q463-390 704-171Q658-155 609-139Q471-96 345-36Q219 24 153.50 128Q88 232 132 406Q193 595 378.50 778.50Q564 962 824 1128.50Q1084 1295 1369.50 1433Q1655 1571 1916 1668.50Q2177 1766 2364 1811Q2380 1814 2396 1818Q2473 1840 2554 1834M851-250L851-250Q805-208 742-185Q388-484 135-868Q134-871 132-874Q116-900 96-941Q76-982 67-1021Q58-1060 76-1083Q139-1107 229-1073Q319-1039 414.50-975Q510-911 590.50-842.50Q671-774 714-728Q778-664 830.50-590Q883-516 899-427Q906-380 895-332.50Q884-285 851-250Z"  horiz-adv-x="1527" vert-adv-y="2048"  />

      
      <glyph glyph-name="uni54" unicode="&#x54;" d="M2821 1465L2821 1465Q2842 1462 2854 1446Q2866 1430 2864 1409Q2861 1388 2845 1375.50Q2829 1363 2808 1366Q2442 1423 2070.50 1417.50Q1699 1412 1331 1369Q1282 1363 1214 1353Q867 566 679-275Q740-452 720.50-663Q701-874 561-1127Q542-1149 517-1148Q492-1147 474-1129Q456-1111 459-1082Q460-1078 460.50-1071.50Q461-1065 462-1058Q463-1043 464-1036Q487-819 522-603Q553-411 593-220Q514-19 365 174Q318 241 266 307Q184 411 113.50 522Q43 633 9 761Q-6 846 35 920.50Q76 995 142 1045Q309 1167 560.50 1249Q812 1331 1096 1380Q1143 1491 1193 1600Q1212 1635 1244 1635.50Q1276 1636 1296.50 1612Q1317 1588 1303 1549Q1269 1477 1236 1403Q1715 1471 2069 1485Q2257 1493 2444.50 1490Q2632 1487 2821 1465M564-948L564-948Q688-672 647-424Q592-694 556-967Q560-957 564-948M757 431L757 431Q892 890 1076 1331Q924 1306 752 1263.50Q580 1221 424 1160Q268 1099 164 1015.50Q60 932 44 825Q52 700 131.50 573.50Q211 447 323 310Q401 212 477.50 105.50Q554-1 615-120Q677 158 757 431Z"  horiz-adv-x="1304" vert-adv-y="2048"  />

      
      <glyph glyph-name="uni55" unicode="&#x55;" d="M2515 1672L2515 1672Q2536 1661 2543.50 1639.50Q2551 1618 2542 1596Q2542 1594 2541 1593Q2541 1592 2540 1591L2540 1591Q2540 1590 2540 1590Q2539 1589 2539 1589Q2517 1536 2495 1483Q2482 1454 2470 1425Q2395 1256 2312 1091Q2296 1059 2279 1026Q2124 688 1992 341Q1860-6 1772-364.50Q1684-723 1662-1096Q1656-1142 1663.50-1209.50Q1671-1277 1700.50-1325.50Q1730-1374 1792-1364Q1815-1361 1826-1375.50Q1837-1390 1833.50-1408Q1830-1426 1808-1433Q1726-1449 1676-1403.50Q1626-1358 1604-1285Q1582-1212 1584-1145Q1596-743 1684-356Q1772 31 1910 406Q1670 49 1388-276Q1237-449 1076.50-614.50Q916-780 737-925Q662-982 575-1022Q454-1080 330.50-1060.50Q207-1041 124-930Q43-810 20-667Q-3-524 2-381Q10 14 107.50 397Q205 780 379 1135Q396 1163 422 1162.50Q448 1162 464.50 1141.50Q481 1121 468 1090Q303 767 203.50 418Q104 69 82-293Q73-425 79.50-559.50Q86-694 138-817Q197-951 307.50-988Q418-1025 550-966Q632-930 704-877Q776-824 843-765Q1551-141 2015 682Q2191 1114 2384 1535Q2408 1588 2431 1641Q2443 1666 2466.50 1675Q2490 1684 2515 1672Z"  horiz-adv-x="2327" vert-adv-y="2048"  />

      
      <glyph glyph-name="uni56" unicode="&#x56;" d="M2081 2099L2081 2099Q2159 2093 2193 2048.50Q2227 2004 2225.50 1942Q2224 1880 2197 1819Q2058 1520 1900.50 1230Q1743 940 1578 655Q1384 322 1180-5Q1181-43 1184-81Q1189-135 1201.50-204Q1214-273 1241.50-332.50Q1269-392 1319-421Q1347-435 1349.50-460.50Q1352-486 1334-504Q1316-522 1282.50-513Q1249-504 1205-451Q1156-380 1134.50-294.50Q1113-209 1107-119Q892-459 653-783Q640-799 620-826Q578-882 519-952Q460-1022 401-1069.50Q342-1117 301-1104Q254-1083 218-1012.50Q182-942 158-862.50Q134-783 124-733Q-1-21 69 699Q84 844 111.50 986.50Q139 1129 191 1267Q199 1287 217.50 1294.50Q236 1302 256 1295Q275 1287 283 1269Q291 1251 284 1231Q197 963 168.50 615.50Q140 268 156-83.50Q172-435 216-716Q222-751 227-787Q236-846 248.50-904Q261-962 285-1016Q291-1030 300.50-1042.50Q310-1055 323-1057Q377-1035 417-988Q426-979 435-970Q531-866 616-753Q701-640 782-524Q946-283 1104-38Q1103 12 1103 58Q1110 290 1159.50 568Q1209 846 1303 1125Q1397 1404 1538.50 1638Q1680 1872 1871 2016Q1918 2049 1970 2074Q2022 2099 2081 2099M2138 1806L2138 1806Q2165 1860 2176.50 1926.50Q2188 1993 2135 2033Q2074 2063 2012.50 2037.50Q1951 2012 1900 1974Q1815 1913 1746 1834.50Q1677 1756 1621 1668Q1416 1335 1298.50 910.50Q1181 486 1178 79Q1710 914 2138 1806Z"  horiz-adv-x="1771" vert-adv-y="2048"  />

      
      <glyph glyph-name="uni57" unicode="&#x57;" d="M1953 2004L1953 2004Q1974 1867 1961 1730Q1948 1593 1924 1458Q1914 1401 1906 1344Q1776 610 1557-102Q1487-325 1402-543Q1317-761 1197-962Q1159-1023 1113-1080Q1067-1137 1007-1179Q931-1230 853-1217Q775-1204 723-1127Q644-992 620-765.50Q596-539 613-267Q630 5 672.50 276.50Q715 548 768 774Q553 476 277 233Q264 223 248 209Q231 194 217 183Q143 122 88.50 125Q34 128 12.50 181Q-9 234 17 323Q112 708 319 1047Q391 1165 474 1276Q496 1302 522.50 1296Q549 1290 561 1266Q573 1242 552 1214Q391 1024 274 805Q156 585 89 345Q89 342 88 338Q77 302 69.50 258.50Q62 215 77 195Q92 175 149 210Q607 570 858 1096Q874 1124 899.50 1125Q925 1126 942 1107Q959 1088 950 1057Q854 777 781 424.50Q708 72 684.50-284Q661-640 712-930Q733-1030 777-1094Q821-1158 886.50-1160Q952-1162 1039-1074Q1131-973 1196-851.50Q1261-730 1315-605Q1524-91 1659 448Q1794 987 1864 1537Q1866 1557 1868 1577Q1882 1700 1881.50 1824.50Q1881 1949 1834 2064Q1822 2094 1839 2114Q1856 2134 1882.50 2134.50Q1909 2135 1925 2105Q1944 2055 1953 2004Z"  horiz-adv-x="2024" vert-adv-y="2048"  />

      
      <glyph glyph-name="uni58" unicode="&#x58;" d="M2077 1464L2077 1464Q2095 1488 2091.50 1515.50Q2088 1543 2065 1561Q2041 1579 2014 1575Q1987 1571 1968 1549Q1967 1546 1935 1504Q1903 1462 1860.50 1407Q1818 1352 1786 1310Q1754 1268 1752 1266Q1481 913 1205 565Q956 248 698-64Q444-371 200-681Q132-766 58-850Q42-867 27-885Q25-887 23-890Q13-899 6-911Q-1-923 4-937Q10-954 27.50-959Q45-964 59-953Q131-896 199-832Q392-653 489-420Q586-187 617.50 70Q649 327 644 579Q635 981 593 1382Q588 1413 564.50 1422.50Q541 1432 518.50 1420.50Q496 1409 494 1379Q496 1302 505 1226Q506 1214 507 1202Q605 401 875-359Q878-366 881-373Q916-465 968-579.50Q1020-694 1091-799Q1162-904 1254-965.50Q1346-1027 1460-1011Q1488-1006 1513-996Q1532-986 1539-967.50Q1546-949 1538-929Q1528-910 1509.50-903.50Q1491-897 1471-905Q1440-920 1407-922Q1352-925 1303.50-898Q1255-871 1217-832Q1069-670 957-392Q845-114 768 212.50Q691 539 647.50 847Q604 1155 593 1376L494 1367Q565 1021 591.50 666Q618 311 567-40Q523-327 397.50-542Q272-757 39-931Q37-931 35.50-930.50Q34-930 33-928.50Q32-927 33-925Q33-925 33-925Q33-925 33-925Q33-925 33-925Q33-924 33-924Q34-924 34-923Q1107 226 2077 1464Z"  horiz-adv-x="1888" vert-adv-y="2048"  />

      
      <glyph glyph-name="uni59" unicode="&#x59;" d="M875-98L875-98Q860-131 837-184Q781-307 709-482Q637-657 588.50-825Q540-993 555-1092Q616-857 714-634.50Q812-412 936-203Q1096 62 1283 311Q1295 326 1312.50 328.50Q1330 331 1346 320Q1362 307 1363.50 287.50Q1365 268 1350 252Q1296 199 1246 142Q1019-118 855-422.50Q691-727 602-1061Q590-1110 581-1159Q580-1168 573.50-1173Q567-1178 559-1177Q542-1171 531.50-1154.50Q521-1138 515-1123Q497-1063 501-1001.50Q505-940 516-880Q516-878 517-876Q550-711 604.50-552.50Q659-394 721-238Q940 298 1203 814Q1006 542 802.50 326Q599 110 424 41Q367 21 309.50 30Q252 39 201 69Q105 127 60.50 242.50Q16 358 7.50 500Q-1 642 11 778Q23 914 39 1012Q56 1119 83 1225Q92 1252 114.50 1256.50Q137 1261 155 1246.50Q173 1232 169 1204Q148 1097 125.50 941.50Q103 786 98.50 618.50Q94 451 126.50 310.50Q159 170 248 93Q343 33 472 102Q601 171 747.50 325.50Q894 480 1039 677.50Q1184 875 1310.50 1072.50Q1437 1270 1527 1424Q1586 1530 1647 1636L1647 1636Q1647 1636 1647 1636Q1647 1636 1647 1636L1647 1636Q1663 1661 1686.50 1659.50Q1710 1658 1724 1639Q1738 1620 1725 1593Q1693 1531 1661 1470Q1457 1083 1257.50 691.50Q1058 300 875-98Z"  horiz-adv-x="1641" vert-adv-y="2048"  />

      
      <glyph glyph-name="uni5a" unicode="&#x5a;" d="M1613 357L1613 357Q1649 363 1665 340Q1681 317 1673 290Q1665 263 1628 258Q1502 249 1380 221Q1401 140 1391 56Q1375-179 1280-393.50Q1185-608 1020-776Q870-926 679-1025Q488-1124 272-1131Q222-1132 162.50-1117.50Q103-1103 57.50-1070Q12-1037 2-980Q-3-854 71-713.50Q145-573 251.50-447.50Q358-322 449-240Q757 39 1141 200Q1205 227 1271 251Q1230 330 1167 392Q1026 534 839 607Q800 623 747 634Q694 645 652 629Q645 624 637 619L637 620Q635 618 633 616Q602 605 581.50 620Q561 635 559.50 660.50Q558 686 585 704Q688 761 780 834Q1065 1054 1223 1376Q1250 1452 1208 1474.50Q1166 1497 1099.50 1489.50Q1033 1482 986 1465Q750 1387 567 1217Q459 1117 389 987Q296 813 327 621Q331 585 307.50 570Q284 555 258 565Q232 575 228 611Q226 791 302 946.50Q378 1102 505 1225Q632 1348 783 1431Q843 1465 933.50 1501Q1024 1537 1114 1544.50Q1204 1552 1262 1502Q1297 1460 1288.50 1404Q1280 1348 1249 1289.50Q1218 1231 1186 1182Q1170 1157 1158 1137Q989 883 747 697Q785 686 822 672Q841 666 859 660Q1001 605 1139 510.50Q1277 416 1354 280Q1482 323 1613 357M1299 132L1299 132Q1300 166 1291 198Q946 97 659-125.50Q372-348 181-650Q179-652 178-654Q136-726 101-806Q66-886 70-970Q73-993 89-1006Q105-1019 124-1028Q127-1030 129-1031Q199-1060 275-1057.50Q351-1055 424-1036Q733-947 954-713Q1175-479 1257-170Q1294-22 1299 132Z"  horiz-adv-x="1860" vert-adv-y="2048"  />

      
      <glyph glyph-name="uni5b" unicode="&#x5b;" d="M453 729L453 729Q464 723 463.50 712.50Q463 702 455 695.50Q447 689 436 694Q363 721 284 708Q295 652 288 595Q279 498 265 403Q213 80 92-224Q153-196 218-190Q231-188 241-195.50Q251-203 253-216Q254-230 245-240.50Q236-251 221-251Q179-248 139-253Q100-258 67-280Q60-284 53.50-282.50Q47-281 43.50-275.50Q40-270 42-262Q165 130 207 539Q209 559 210 580Q213 622 219 663Q225 704 243 740Q247 746 253 746Q356 768 453 729Z"  horiz-adv-x="564" vert-adv-y="2048"  />

      
      <glyph glyph-name="uni5c" unicode="&#x5c;" d="M630-225L630-225Q633-231 630.50-237Q628-243 622-246Q616-248 610-246Q604-244 602-238Q436 123 215 452Q141 560 56 659Q40 681 49.50 700Q59 719 79.50 724.50Q100 730 118 710Q281 495 404 257Q529 21 630-225Z"  horiz-adv-x="733" vert-adv-y="2048"  />

      
      <glyph glyph-name="uni5d" unicode="&#x5d;" d="M437 762L437 762Q444 767 451 765.50Q458 764 461.50 758Q465 752 462 744Q358 412 311 68Q299-25 292-119Q290-192 261-258Q257-264 251-264Q148-286 51-247Q40-241 40.50-231Q41-221 49-214.50Q57-208 68-213Q141-240 220-226Q209-170 216-113Q225-17 239 78Q290 400 411 703Q351 670 284 662Q271 661 261.50 668.50Q252 676 250 688Q248 703 257.50 713Q267 723 281 723Q322 721 362 730Q402 739 437 762Z"  horiz-adv-x="565" vert-adv-y="2048"  />

      
      <glyph glyph-name="uni5e" unicode="&#x5e;" d="M259 574L259 574Q265 567 262 560Q259 553 252 550Q245 547 238 553Q195 588 179 641Q147 607 111 577Q105 573 97 566Q83 554 68 546Q53 538 43 551Q40 557 41.50 563Q43 569 48 573Q124 638 173 726L173 726Q181 738 193.50 741Q206 744 218 736Q231 724 228 708Q221 672 227 638Q236 602 259 574Z"  horiz-adv-x="365" vert-adv-y="2048"  />

      
      <glyph glyph-name="uni5f" unicode="&#x5f;" d="M590-64L590-64Q605-65 613-71Q621-77 619-85Q617-95 598.50-99Q580-103 553.50-104.50Q527-106 501-107Q476-107 462-108Q267-113 73-105Q40-102 40-85Q40-68 73-64Q332-49 590-64Z"  horiz-adv-x="721" vert-adv-y="2048"  />

      
      <glyph glyph-name="uni60" unicode="&#x60;" d="M176 583L176 583Q181 576 177.50 569.50Q174 563 167 561.50Q160 560 154 565Q154 565 144 575.50Q134 586 119 601Q104 616 89.50 631Q75 646 64.50 656.50Q54 667 54 667Q40 684 47.50 699Q55 714 71.50 717.50Q88 721 101 704L176 583Z"  horiz-adv-x="281" vert-adv-y="2048"  />

      
      <glyph glyph-name="uni61" unicode="&#x61;" d="M709 355L709 355Q713 362 720 361Q727 360 731 354.50Q735 349 731 342Q702 301 664 269.50Q626 238 585 210Q578 205 572 201Q473 133 381 96.50Q289 60 221.50 82.50Q154 105 127 216Q61 118-15 27Q-55-13-97.50 4.50Q-140 22-131 80Q-90 262 40 396Q82 439 143 465Q167 474 182.50 459Q198 444 197 422.50Q196 401 172 391Q97 353 46.50 283.50Q-4 214-32 133Q50 239 121 353Q132 370 150.50 371Q169 372 182.50 360Q196 348 195 328Q175 267 184.50 202.50Q194 138 260 112Q359 113 460 168Q561 223 640 284Q681 314 709 355Z"  horiz-adv-x="699" vert-adv-y="2048"  />

      
      <glyph glyph-name="uni62" unicode="&#x62;" d="M574 358L574 358Q579 363 584 361Q589 359 590.50 354Q592 349 587 345Q496 276 395 225Q294 174 190 134Q167 126 142 116Q141 116 141 116Q161 86 167 52Q166-24 127.50-94Q89-164 36-221Q35-222 33-224Q16-241-13.50-266Q-43-291-72.50-305Q-102-319-119-301Q-153-231-118-68Q-83 95-11.50 291Q60 487 134.50 656Q209 825 252 907Q261 922 269 937Q290 977 315 1014.50Q340 1052 377 1080Q396 1094 414 1084Q432 1074 430 1052Q408 942 373 837Q301 638 182 460Q181 458 177 453Q166 437 141.50 401.50Q117 366 90 332Q57 245 26 157Q29 158 32 159Q70 170 100 153Q213 158 358 225.50Q503 293 574 358M366 946L366 946Q318 866 281 780Q265 746 248 712Q179 558 118 402Q273 605 344 844Q346 852 348 861Q361 903 366 946M55 85L55 85L54 86Q46 84 37 82Q15 84 7 101Q-3 72-12 42Q-24 2-37-38Q-56-94-70-150.50Q-84-207-85-264Q-20-220 25-155Q70-90 91-17Q98 8 97 32Q94 48 81.50 65Q69 82 55 85Z"  horiz-adv-x="552" vert-adv-y="2048"  />

      
      <glyph glyph-name="uni63" unicode="&#x63;" d="M648 346L648 346Q653 351 658.50 349Q664 347 666 342Q668 337 664 331Q582 252 459 158Q336 64 201.50-2Q67-68-48-63Q-127-47-133.50 20.50Q-140 88-102 174Q-64 260-10 332.50Q44 405 85 432Q112 452 147.50 460Q183 468 215 448Q235 433 232 412.50Q229 392 211.50 380.50Q194 369 172 380Q123 368 76.50 316Q30 264-6 200Q-42 136-59 90Q-62 80-65 69Q-77 36-78 4.50Q-79-27-43-33Q64-40 163 4.50Q262 49 351 106Q360 112 368 117Q483 191 584 282Q618 312 648 346Z"  horiz-adv-x="631" vert-adv-y="2048"  />

      
      <glyph glyph-name="uni64" unicode="&#x64;" d="M500 975L500 975Q511 969 514.50 958.50Q518 948 514 936Q392 649 303 352Q214 55 150-246Q146-263 132.50-272.50Q119-282 102-281Q86-278 77-265Q68-252 72-235Q164 175 304 576Q233 448 155.50 325.50Q78 203-17 91Q-49 55-92.50 42.50Q-136 30-158 80Q-169 127-148 173Q-127 219-98 259Q-57 315 2.50 360.50Q62 406 133 402Q146 400 153 393Q242 545 322 703Q367 790 413 875Q413 875 420 888Q427 901 435.50 917.50Q444 934 450.50 946.50Q457 959 457 959Q464 971 476.50 975.50Q489 980 500 975M-20 141L-20 141Q50 228 109 322Q45 307-5.50 254.50Q-56 202-87 145Q-108 92-99 83.50Q-90 75-66 94Q-42 113-20 141Z"  horiz-adv-x="542" vert-adv-y="2048"  />

      
      <glyph glyph-name="uni65" unicode="&#x65;" d="M665 360L665 360Q675 348 662.50 333Q650 318 633 304Q621 294 616 288Q578 254 490 198Q402 142 297 94Q192 46 105 36Q18 26-17 83Q-50 167-31.50 258.50Q-13 350 41 421Q73 459 118 463Q163 467 174 409Q181 380 157 345.50Q133 311 97.50 282Q62 253 36 242Q24 179 29 135Q37 71 105.50 73Q174 75 265.50 112.50Q357 150 436 195Q515 240 545 263Q602 303 646 357Q650 362 655.50 362.50Q661 363 665 360M112 388L112 388Q67 357 47 286Q72 309 93 337.50Q114 366 112 388Z"  horiz-adv-x="635" vert-adv-y="2048"  />

      
      <glyph glyph-name="uni66" unicode="&#x66;" d="M554 356L554 356Q557 352 556.50 347.50Q556 343 552 340Q459 261 361 189Q262 117 157.50 49Q53-19-58-71Q-77-142-92-214Q-47-269-56.50-340.50Q-66-412-147-492Q-155-500-165-500Q-175-500-182-493Q-189-486-187-475Q-173-343-148-211Q-163-198-182-187Q-231-157-288-142Q-296-140-297.50-133Q-299-126-295.50-119.50Q-292-113-284-112Q-198-97-116-65Q-59 175 39 404Q99 549 191 681Q208 702 229 698Q250 694 259.50 675.50Q269 657 252 635Q147 481 73 311.50Q-1 142-49-36Q56 14 154.50 78Q253 142 347 209Q445 280 537 357Q542 360 546.50 360Q551 360 554 356M-127-401L-127-401Q-82-333-104-271Q-117-336-127-401M-140-170L-140-170Q-132-134-124-98Q-172-116-220-129Q-175-145-140-170Z"  horiz-adv-x="515" vert-adv-y="2048"  />

      
      <glyph glyph-name="uni67" unicode="&#x67;" d="M227 434L227 434Q239 453 258.50 454.50Q278 456 291.50 443.50Q305 431 300 409Q230 105 135-194Q151-192 162.50-195Q174-198 175-213Q173-219 168-223Q163-227 157-226Q141-223 125-224Q65-405-19-579Q-97-738-201-885Q-213-901-231.50-902.50Q-250-904-264-891Q-287-865-292.50-796.50Q-298-728-279-661Q-244-537-160.50-414Q-77-291 42-225Q115-11 169 208Q132 149 85 98Q20 29-41.50 39Q-103 49-100 147Q-88 224-49 293Q-10 362 48 418Q109 472 151 480Q193 488 212 471Q231 454 223 431.50Q215 409 177 402Q131 392 79.50 333.50Q28 275-2.50 205.50Q-33 136-16 94L-21 96Q17 80 52.50 114Q88 148 117.50 201Q147 254 166 296Q173 311 179 322Q192 352 205 383Q216 408 227 434M-240-807L-240-807Q-69-549 30-261Q-75-327-146.50-440.50Q-218-554-244-666Q-245-667-245-669Q-250-700-252-739Q-254-778-240-807Z"  horiz-adv-x="474" vert-adv-y="2048"  />

      
      <glyph glyph-name="uni68" unicode="&#x68;" d="M739 353L739 353Q747 361 755 359Q763 357 766 349.50Q769 342 761 334Q739 313 717 292Q645 220 564 159Q483 98 387 79Q283 84 256.50 161Q230 238 254 333Q182 284 112.50 225Q43 166-5 98Q-33 18-61-61Q-64-72-73-75.50Q-82-79-90.50-75Q-99-71-99-60Q-105 28-57 106Q44 476 178 838Q162 844 154.50 859Q147 874 159 894Q210 975 263 1053Q277 1073 296.50 1072.50Q316 1072 328.50 1057.50Q341 1043 333 1021L333 1021Q177 635 43 236Q108 305 181 364Q248 419 316 469Q334 482 351.50 476Q369 470 376 453.50Q383 437 371 418Q328 369 302 308Q276 247 287 185Q307 116 366.50 107Q426 98 487 135Q584 191 664 271Q704 310 739 353Z"  horiz-adv-x="726" vert-adv-y="2048"  />

      
      <glyph glyph-name="uni69" unicode="&#x69;" d="M538 357L538 357Q563 360 555.50 346.50Q548 333 520 310Q492 287 458.50 262.50Q425 238 398 220.50Q371 203 365 200Q290 153 211 112.50Q132 72 45 49Q-26 28-53 73Q-80 118-69 181Q-58 280 0 361Q17 380 37.50 374.50Q58 369 68 350.50Q78 332 63 311Q30 264 8 206.50Q-14 149-6 92Q15 72 52 79Q89 86 122 100Q138 106 150 109Q257 153 356.50 214Q456 275 538 357M63 456L63 456Q26 461 24.50 489Q23 517 44.50 538Q66 559 96 541Q114 528 112 508.50Q110 489 96 473Q82 457 63 456Z"  horiz-adv-x="523" vert-adv-y="2048"  />

      
      <glyph glyph-name="uni6a" unicode="&#x6a;" d="M1 360L1 360Q7 386 28 392Q49 398 66.50 387.50Q84 377 79 351Q27 72-59-202Q-24-194 12-193Q24-194 27-203Q30-212 25.50-221Q21-230 8-230Q-17-228-44-232Q-57-233-70-236Q-79-262-88-287Q-144-446-224-597Q-304-748-414-881Q-429-898-450.50-897Q-472-896-481-876Q-487-855-482-834Q-480-823-480-811Q-486-654-395-489Q-304-324-153-238Q-105-98-70 44Q-31 201 1 360M-441-792L-441-792Q-263-554-167-277Q-179-284-190-292Q-279-357-340.50-450.50Q-402-544-430-648Q-432-658-434-668Q-441-698-444.50-731Q-448-764-441-792M105 576L105 576Q118 567 120 551Q122 535 112 521Q109 516 105 511Q96 497 83.50 484.50Q71 472 55 473Q31 474 21.50 494Q12 514 27 534Q40 557 60 574Q80 591 105 576Z"  horiz-adv-x="268" vert-adv-y="2048"  />

      
      <glyph glyph-name="uni6b" unicode="&#x6b;" d="M687 357L687 357Q698 348 682.50 324Q667 300 639.50 272Q612 244 586 220.50Q560 197 550 189Q470 125 376 89Q281 54 184 48Q87 42-8 56Q-13 56-16 60Q-26 38-35 15Q-45-21-56-57Q-58-67-66.50-72Q-75-77-84-76Q-102-68-100-48Q-98-28-89-6Q-83 11-81 24Q-78 36-74 48Q26 441 157 827Q145 834 141.50 847Q138 860 146 876L239 1049Q252 1071 272.50 1072Q293 1073 306.50 1058.50Q320 1044 311 1021L311 1021Q154 645 38 257Q78 308 124 352Q166 391 207 426Q223 440 238 453Q255 468 272.50 464Q290 460 299 445Q308 430 299 410Q246 318 176 238Q106 158 30 84Q211 61 379 127Q547 193 663 353Q668 359 674.50 360Q681 361 687 357M134 267L134 267Q64 199 14 116Q35 141 57 167Q97 215 134 267Z"  horiz-adv-x="651" vert-adv-y="2048"  />

      
      <glyph glyph-name="uni6c" unicode="&#x6c;" d="M757 196L757 196Q764 207 774 206Q784 205 789.50 197Q795 189 788 179Q737 101 638.50-14Q540-129 419-236Q298-343 178.50-397Q59-451-35-405Q-107-346-103-195Q-99-44-45 155Q9 354 87.50 557Q166 760 242.50 923Q319 1086 369 1165Q415 1244 471 1319Q481 1331 494.50 1334.50Q508 1338 521 1332Q545 1316 538.50 1287.50Q532 1259 516 1229Q507 1210 502 1195Q471 1129 440 1062Q385 939 324.50 818.50Q264 698 187 587Q106 371 43 154Q40 146 38 136Q20 69-2-35.50Q-24-140-25.50-234.50Q-27-329 16-365Q87-391 177-351.50Q267-312 359.50-237.50Q452-163 529.50-82.50Q607-2 653 53Q710 121 757 196Z"  horiz-adv-x="787" vert-adv-y="2048"  />

      
      <glyph glyph-name="uni6d" unicode="&#x6d;" d="M1030 357L1030 357Q1036 362 1041.50 359.50Q1047 357 1049 351.50Q1051 346 1046 341Q909 219 727 193Q704 190 680 191Q656 192 636 206Q599 236 577 277Q573 283 568 291Q558 308 545.50 324Q533 340 518 343Q484 322 460 285Q454 276 448 268Q432 247 417 225Q391 186 361 148Q335 112 308 113.50Q281 115 266 160Q243 266 248 374Q171 273 98 169Q65 124 33 79Q28 71 22 64Q-4 27-32-9Q-34-12-36-14Q-42-23-53-29Q-63-33-71-27Q-79-21-78-10Q-74 18-70 47Q-66 77-61 107Q-52 155-40 203Q-36 215-33 228Q-31 238-28 249Q-14 302-1 347Q8 373 29 376Q50 379 66 365Q82 351 75 324Q50 250 21 172Q17 160 13 149Q3 117-12 85Q-13 82-14 79Q-7 91 0 102Q91 249 182 402Q187 411 192 420Q198 430 205 441Q232 487 259 528Q275 548 295 547.50Q315 547 329 531.50Q343 516 340 492Q322 446 318 366.50Q314 287 327 223Q348 245 367 267Q403 310 446 349Q480 381 513 384.50Q546 388 569 341Q576 328 585 313Q602 278 626 246.50Q650 215 683 212Q751 211 816.50 232Q882 253 940 287Q990 317 1030 357Z"  horiz-adv-x="1010" vert-adv-y="2048"  />

      
      <glyph glyph-name="uni6e" unicode="&#x6e;" d="M859 356L859 356Q864 362 870 360.50Q876 359 879 354Q882 349 878 343Q868 331 857 322Q796 275 700.50 216Q605 157 506.50 132.50Q408 108 338 165Q312 192 303.50 251.50Q295 311 303 367Q208 295 120.50 202.50Q33 110-17 14L-17 14Q-30-1-48 0Q-66 1-78 14.50Q-90 28-86 48Q-68 129-41 209Q-31 241-22 273Q-22 273-22 274Q-11 309-3 345Q4 370 25 374.50Q46 379 63 366.50Q80 354 75 328Q58 256 35 184Q29 167 24 151Q92 214 157 281Q245 373 340 455Q352 465 362.50 458Q373 451 380 435Q391 408 385.50 378Q380 348 369 318Q357 284 351.50 250.50Q346 217 363 186Q407 145 466.50 149Q526 153 586.50 179Q647 205 692 231Q699 235 707 240Q793 287 859 356Z"  horiz-adv-x="847" vert-adv-y="2048"  />

      
      <glyph glyph-name="uni6f" unicode="&#x6f;" d="M702 353L702 353Q705 341 688.50 334Q672 327 653 323Q638 319 631 316Q531 290 428 289Q423 289 418 289Q379 290 326 294Q273 298 225 313Q227 237 198.50 165Q170 93 119 56Q59 13 9 32Q-41 51-55 123Q-70 255 10 364Q51 417 111 447Q139 458 156 439Q165 448 179 441Q213 402 222 344Q272 324 334 318.50Q396 313 428 313Q563 312 688 359Q692 361 696 359Q700 357 702 353M181 371L181 371Q178 386 172 400Q172 384 181 371M44 72L44 72Q121 90 158.50 167Q196 244 189 329Q158 346 146 375Q146 375 146 375Q146 375 146 375Q90 346 56.50 293.50Q23 241 13 180Q13 176 12 172Q9 143 12.50 112Q16 81 44 72Z"  horiz-adv-x="671" vert-adv-y="2048"  />

      
      <glyph glyph-name="uni70" unicode="&#x70;" d="M51 156L51 156L51 154Q51 155 50 155Q50 155 50 155Q51 156 51 156L51 156M771 357L771 357Q777 363 783 361Q789 359 791.50 353Q794 347 788 341Q713 269 623 218Q533 167 435 132Q232 60 16 84L17 85Q17 85 16 85Q16 85 16 86Q-16-67-61.50-214.50Q-107-362-191-494Q-195-501-203.50-503Q-212-505-219-501Q-228-496-229-471Q-230-446-226.50-415Q-223-384-220-361Q-218-349-217-343Q-174-98-48 117Q-27 232-2 346Q6 371 27 375Q48 379 64.50 366Q81 353 76 326Q69 302 62 278Q119 350 188.50 396.50Q258 443 326 411Q411 345 394.50 285Q378 225 309 180.50Q240 136 169 115Q309 109 448 158Q587 207 698 289Q738 320 771 357M-180-383L-180-383Q-115-236-85-77Q-81-56-77-35Q-155-202-180-383M50 155L50 155Q48 153 49 151L51 154Q60 147 71 140Q102 137 135 148Q145 151 156 153Q205 166 264.50 200Q324 234 345 279Q366 324 300 372Q266 385 228.50 365Q191 345 158 312.50Q125 280 104 256Q69 212 37 165Q40 164 43 162Q46 158 50 155Z"  horiz-adv-x="763" vert-adv-y="2048"  />

      
      <glyph glyph-name="uni71" unicode="&#x71;" d="M270 326L270 326Q208 215 153 101Q66-82 2-271Q29-248 64-232Q74-228 98.50-221.50Q123-215 150.50-210.50Q178-206 198-208Q218-210 219-222Q219-228 214.50-231.50Q210-235 204-235Q138-229 75.50-256.50Q13-284-21-348Q-24-353-27-359Q-27-359-27-359Q-66-484-100-611L-100-611Q-100-611-100-611Q-100-611-100-612Q-103-624-113-631.50Q-123-639-136-638Q-150-636-156-625Q-162-614-159-601Q-69-212 98 157Q68 128 34 101Q-19 58-63.50 69.50Q-108 81-104 153Q-98 204-74.50 249.50Q-51 295-20 336Q9 374 49.50 411Q90 448 137 465Q184 482 232 462Q253 449 250 428Q247 407 229.50 393.50Q212 380 189 391L189 391Q144 398 84.50 346Q25 294-16.50 225.50Q-58 157-49 112Q1 98 59 156Q117 214 160 285Q179 322 200 360L201 359Q202 362 203 365Q219 385 239 383Q259 381 270 365Q281 349 270 326Z"  horiz-adv-x="460" vert-adv-y="2048"  />

      
      <glyph glyph-name="uni72" unicode="&#x72;" d="M343 313L343 313Q350 308 360.50 307Q371 306 383 306Q396 307 405.50 305.50Q415 304 416 296Q412 284 393.50 279.50Q375 275 354 276Q333 277 321 282Q289 298 276 326.50Q263 355 264 389Q163 302 89.50 189Q16 76-36-46Q-39-54-46.50-58Q-54-62-63-58Q-71-54-73.50-45.50Q-76-37-76-28Q-76-19-78-12Q-90 185 9 355Q23 375 43 373Q63 371 76 355Q89 339 79 317Q53 265 37 211Q136 393 302 516Q320 528 337.50 521Q355 514 362.50 497Q370 480 357 462Q336 430 323 385Q310 340 343 313Z"  horiz-adv-x="536" vert-adv-y="2048"  />

      
      <glyph glyph-name="uni73" unicode="&#x73;" d="M632 354L632 354Q643 351 623 335Q603 319 567.50 298Q532 277 499 258Q460 236 448 228Q381 192 314 156Q231 112 148 66Q145 38 124 6Q94-36 49-60Q4-84-46-94Q-52-94-60-96Q-75-99-90.50-97.50Q-106-96-110-81Q-87-42-46-19Q-34-12-24-4Q24 27 73 56Q80 77 73 101Q63 119 52 138Q19 188 6 248Q-9 339 20 390Q49 441 90.50 458.50Q132 476 156.50 467.50Q181 459 156 430Q104 403 90 350.50Q76 298 92 245Q102 214 117 184Q140 141 148 98Q184 117 220 137Q235 145 250 153Q302 181 355 208Q469 265 575 331Q581 334 586 338Q597 346 608 351Q619 356 632 354M41 5L41 5Q-4-20-45-51Q4-30 41 5Z"  horiz-adv-x="598" vert-adv-y="2048"  />

      
      <glyph glyph-name="uni74" unicode="&#x74;" d="M757 648L757 648Q781 631 776.50 607Q772 583 751.50 570.50Q731 558 706 576Q681 613 636.50 624.50Q592 636 545 638Q527 639 510 641Q347 647 183 633Q128 472 66 312Q57 287 47 261Q35 125-2 15Q-9-6-17-27Q-34-78-57.50-126.50Q-81-175-121-212Q-138-221-151-211Q-164-201-160-183Q-85 89 12 357Q18 374 24 391Q14 456-18 505.50Q-50 555-114 574Q-125 579-144 579Q-158 579-169 581.50Q-180 584-180 595Q-179 599-176 602.50Q-173 606-169 607Q-55 634 59 651Q84 654 114 658Q114 659 115 661Q116 663 116 665Q124 689 131 713Q170 826 189 941Q192 967 212.50 975.50Q233 984 251.50 975.50Q270 967 269 940Q239 803 195 668Q293 682 401.50 690.50Q510 699 605 691Q700 683 757 648M-79-100L-79-100Q-40-41-16.50 36.50Q7 114 18 184Q-35 43-79-100M36 427L36 427Q71 526 103 625Q1 613-101 594Q-44 573-10.50 529.50Q23 486 36 427Z"  horiz-adv-x="336" vert-adv-y="2048"  />

      
      <glyph glyph-name="uni75" unicode="&#x75;" d="M72 305L72 305Q72 305 72 305Q72 305 72 305Q72 305 72 305Q72 304 71 304Q71 304 71 304Q72 304 72 305M774 357L774 357Q805 366 800 350.50Q795 335 768 305.50Q741 276 706 244.50Q671 213 643.50 189.50Q616 166 610 162Q587 145 563 126Q503 78 438 38.50Q373-1 297-10Q240-3 220 37Q200 77 203 130Q206 183 218 230Q169 170 108 122Q48 86 13 108Q-22 130-31 181Q-40 232-22 283Q-6 344 18.50 363Q43 382 63.50 374Q84 366 88.50 344.50Q93 323 68 302Q69 302 70 302.50Q71 303 71 304Q71 304 71 304Q70 303 69 301Q50 269 36.50 227.50Q23 186 38 151Q61 141 91 166.50Q121 192 150 231.50Q179 271 200 303Q212 321 219 331Q227 342 235 356Q252 389 279 408Q297 419 313.50 411.50Q330 404 336 386.50Q342 369 329 353Q325 348 322 344Q321 344 321 344L322 343Q321 342 319 340Q318 339 318 338Q304 320 294 301Q250 218 241 125Q239 17 309.50 23Q380 29 479.50 97Q579 165 664 243Q749 321 774 357Z"  horiz-adv-x="761" vert-adv-y="2048"  />

      
      <glyph glyph-name="uni76" unicode="&#x76;" d="M822 357L822 357Q829 347 816 335Q803 323 782 311.50Q761 300 743 291Q728 284 722 281Q567 207 396 184Q294 178 284 228Q213 149 154 61Q104-11 66-90Q55-107 37-108.50Q19-110 4.50-99Q-10-88-9-67Q-3 38-3 143Q-2 250 3 357Q6 383 26 390.50Q46 398 65 388.50Q84 379 83 353Q78 247 77 141Q77 101 76 60Q180 189 297 306Q324 364 374.50 416.50Q425 469 470 488Q486 497 506.50 496.50Q527 496 540 484Q553 472 548 447Q542 432 528 426Q447 389 383 328Q344 292 308 254Q306 242 309 233Q326 202 380.50 204Q435 206 497 222Q559 238 597 251Q605 254 611 255Q690 283 762 325Q773 330 785 342Q795 351 805 357Q815 363 822 357Z"  horiz-adv-x="786" vert-adv-y="2048"  />

      
      <glyph glyph-name="uni77" unicode="&#x77;" d="M844 356L844 356Q877 351 837 327.50Q797 304 716.50 278Q636 252 547.50 240Q459 228 396 245Q354 130 272 43Q216 18 188 46.50Q160 75 151 131Q142 187 144 245Q100 180 44 124Q30 113 12.50 119Q-5 125-14 139Q-40 191-27.50 248.50Q-15 306 9 356Q23 379 44.50 376.50Q66 374 79 356.50Q92 339 79 316Q68 298 53 266.50Q38 235 29 202.50Q20 170 27 152Q69 193 99.50 246Q130 299 154 353Q162 367 175 368Q188 369 198.50 360.50Q209 352 208 336Q208 321 206 293Q204 251 204 200Q204 149 211 109Q218 69 238 59Q276 80 311 133Q346 186 374 255Q316 281 330 362Q343 443 397 504Q404 511 417 521Q430 531 443.50 534Q457 537 465 523Q465 466 451 413Q450 411 450 410Q430 340 406 270Q465 250 556 263.50Q647 277 729 305Q811 333 844 356M25 149L25 149Q25 149 25 149Q25 149 25 149Q25 149 25 149Q25 149 25 149M356 335L356 335Q357 299 384 281Q428 404 434 494Q397 468 378 423.50Q359 379 356 335Z"  horiz-adv-x="828" vert-adv-y="2048"  />

      
      <glyph glyph-name="uni78" unicode="&#x78;" d="M850 358L850 358Q881 364 874 347.50Q867 331 837 302.50Q807 274 769 243Q731 212 701 190.50Q671 169 664 166Q564 100 446.50 56.50Q329 13 209 53Q164 69 124 96Q81 41 43-17Q33-31 17.50-34.50Q2-38-13-29Q-40-10-14.50 38Q11 86 65 147Q49 166 37 188Q-1 258 4 336Q7 361 26 368.50Q45 376 64 367.50Q83 359 84 335Q88 262 118 204Q186 273 247 327Q308 381 331 398Q347 409 361 402Q375 395 379 379.50Q383 364 369 351Q256 256 162 143Q207 97 270.50 79.50Q334 62 410 83Q669 157 850 358Z"  horiz-adv-x="836" vert-adv-y="2048"  />

      
      <glyph glyph-name="uni79" unicode="&#x79;" d="M190-198L190-198Q195-198 198.50-201.50Q202-205 201-210Q201-215 197-218.50Q193-222 188-222Q162-222 136-226Q5-569-189-886Q-213-914-231-906.50Q-249-899-260.50-876.50Q-272-854-275-834Q-298-708-247.50-582Q-197-456-112-354Q-41-271 58-226Q174 51 221 305Q147 197 65 92Q60 85 54 79Q38 55 14 43Q-53 41-62 103.50Q-71 166-47.50 242Q-24 318 6 356Q29 390 56 388Q83 386 91.50 364Q100 342 70 314Q48 297 28 255Q8 213-0.50 168.50Q-9 124 4 100Q34 133 73 182Q112 231 143 275Q157 296 175 319Q195 345 212.50 372.50Q230 400 235 427Q237 442 249 450Q305 487 308 420Q311 353 285.50 241.50Q260 130 229.50 32.50Q199-65 189-88Q168-145 146-201Q168-198 190-198M-233-809L-233-809Q-86-563 46-256Q-85-328-157-460Q-213-558-234-665Q-235-669-236-675Q-241-705-243-743.50Q-245-782-233-809Z"  horiz-adv-x="515" vert-adv-y="2048"  />

      
      <glyph glyph-name="uni7a" unicode="&#x7a;" d="M229-137L229-137Q233-138 233.50-140.50Q234-143 233-145.50Q232-148 228-148Q196-151 165-160Q134-243 77-320Q20-397-37-453Q-104-523-194-557Q-202-559-213.50-561Q-225-563-233-560Q-241-557-238-544Q-198-444-121.50-349.50Q-45-255 55-194Q93-122 95-60Q97 2 43 43Q16 64 31 90Q46 116 80 149Q113 181 142.50 221Q172 261 178 311Q183 377 155 398Q127 419 68 372Q54 361 43 349Q39 345 34 346Q29 347 27 351.50Q25 356 29 361Q85 432 133.50 437Q182 442 208.50 397Q235 352 225 275Q214 223 185.50 176.50Q157 130 123 88Q175 40 183.50-20.50Q192-81 170-147Q199-139 229-137M-189-499L-189-499Q-135-449-72-375.50Q-9-302 39-223Q-112-335-189-499Z"  horiz-adv-x="432" vert-adv-y="2048"  />

      
      <glyph glyph-name="uni7b" unicode="&#x7b;" d="M281 744L281 744Q294 751 320 760.50Q346 770 368.50 770.50Q391 771 394 750Q395 742 390 736Q385 730 377 729Q323 715 281 675.50Q239 636 223 582Q213 526 225 468Q228 446 230 425Q238 365 215 308Q192 251 139 220Q165 194 173 154.50Q181 115 172 80Q160 34 140-10Q113-64 104-123Q103-142 111.50-162Q120-182 135-192Q145-199 154-198Q163-197 172-193Q183-189 194-189.50Q205-190 216-207Q222-219 218-231.50Q214-244 202-250Q133-278 86.50-229.50Q40-181 50-112Q62-52 92 2Q124 58 134 121Q136 148 126 173.50Q116 199 90 206Q79 205 70 209Q61 213 60 223Q59 231 63.50 236Q68 241 76 242Q76 242 77 242Q77 242 78 242L78 242Q112 251 132.50 281Q153 311 160 345Q170 399 159 451Q154 476 152 503Q143 578 179 643.50Q215 709 281 744Z"  horiz-adv-x="495" vert-adv-y="2048"  />

      
      <glyph glyph-name="uni7c" unicode="&#x7c;" d="M218 705L218 705Q223 723 238 726.50Q253 730 265 721Q277 712 274 693L63-232Q62-237 58-239.50Q54-242 49-241Q45-239 42.50-235.50Q40-232 41-227L218 705Z"  horiz-adv-x="377" vert-adv-y="2048"  />

      
      <glyph glyph-name="uni7d" unicode="&#x7d;" d="M424 611L424 611Q408 554 377 504Q343 448 330 385Q327 359 335.50 332.50Q344 306 369 298Q380 298 388.50 293.50Q397 289 398 279Q398 271 393 266Q388 261 381 261Q380 261 380 261Q380 261 379 261L379 261Q344 253 323 223.50Q302 194 292 161Q281 107 289 54Q292 29 293 2Q298-73 259.50-137.50Q221-202 154-234Q141-241 114.50-249.50Q88-258 65.50-257Q43-256 40-236Q41-228 46-222Q51-216 58-215Q114-204 157.50-165.50Q201-127 218-74Q230-18 222 41Q220 62 219 85Q214 145 239.50 201Q265 257 320 286Q295 313 289.50 353.50Q284 394 294 429Q307 475 330 517Q364 576 371 643Q370 665 358.50 684.50Q347 704 326 708Q316 708 307 704Q294 698 282 703Q270 708 264 720Q259 733 263.50 745Q268 757 281 763Q328 781 364.50 760Q401 739 418 696.50Q435 654 424 611Z"  horiz-adv-x="535" vert-adv-y="2048"  />

      
      <glyph glyph-name="uni7e" unicode="&#x7e;" d="M378 303L378 303Q381 298 379.50 290.50Q378 283 375 276Q374 273 373 271Q360 243 331.50 230Q303 217 273 222Q236 230 201 252Q164 276 129.50 281.50Q95 287 65 239Q62 232 56 231Q50 230 45 233.50Q40 237 40 244Q43 291 81 316Q119 341 164 330Q202 318 232 295Q252 281 274 270Q301 257 328 266Q355 275 370 301Q372 303 374 303.50Q376 304 378 303Z"  horiz-adv-x="481" vert-adv-y="2048"  />

      
      <glyph glyph-name="uni0300" unicode="&#x0300;" d="M-70 583L-70 583Q-65 576-68.50 569.50Q-72 563-79 561.50Q-86 560-92 565Q-92 565-102 575.50Q-112 586-127 601Q-142 616-156.50 631Q-171 646-181.50 656.50Q-192 667-192 667Q-206 684-198.50 699Q-191 714-174.50 717.50Q-158 721-145 704L-70 583Z"   vert-adv-y="2048"  />

      
      <glyph glyph-name="uni0301" unicode="&#x0301;" d="M-124 704L-124 704Q-110 721-93.50 717.50Q-77 714-69.50 699Q-62 684-76 667L-176 565Q-182 560-189 561.50Q-196 563-199.50 569.50Q-203 576-199 583Q-199 583-191 595.50Q-183 608-172 625.50Q-161 643-150 661Q-139 679-131.50 691.50Q-124 704-124 704Z"   vert-adv-y="2048"  />

      
      <glyph glyph-name="uni0302" unicode="&#x0302;" d="M-75 591L-75 591Q-70 584-73 577Q-76 570-83 567Q-90 564-97 570Q-131 597-146 636Q-171 612-198 589Q-204 586-211 580Q-223 569-236 563Q-249 557-259 569Q-262 575-260.50 581Q-259 587-255 591Q-193 645-154 718L-154 718Q-144 732-130 733.50Q-116 735-106 726Q-96 717-98 699Q-113 639-75 591Z"   vert-adv-y="2048"  />

      
      <glyph glyph-name="uni0303" unicode="&#x0303;" d="M-83 659L-83 659Q-79 648-83.50 636Q-88 624-96 615Q-113 596-137.50 592Q-162 588-184 597Q-202 604-218 614Q-240 629-264 633Q-289 632-305 609Q-309 604-315 604Q-321 604-326 607.50Q-331 611-331 618Q-331 659-296 679Q-261 699-223 685Q-200 675-183 661Q-164 646-140 638Q-123 636-112.50 641.50Q-102 647-96 653Q-92 657-89 659Q-86 661-83 659Z"   vert-adv-y="2048"  />

      
      <glyph glyph-name="uni0304" unicode="&#x0304;" d="M-76 656L-76 656Q-65 653-61.50 643.50Q-58 634-61.50 625Q-65 616-76 613Q-178 595-281 610Q-294 612-298.50 622.50Q-303 633-299 643Q-295 653-282 656Q-205 667-127 663Q-102 661-76 656Z"   vert-adv-y="2048"  />

      
      <glyph glyph-name="uni0307" unicode="&#x0307;" d="M-201 643L-201 643Q-196 667-175.50 677Q-155 687-137 679.50Q-119 672-120 643Q-125 619-145.50 609Q-166 599-184.50 606.50Q-203 614-201 643Z"   vert-adv-y="2048"  />

      
      <glyph glyph-name="uni0308" unicode="&#x0308;" d="M-271 643L-271 643Q-266 667-245.50 677Q-225 687-207 679.50Q-189 672-190 643Q-195 619-215.50 609Q-236 599-254.50 606.50Q-273 614-271 643M-151 643L-151 643Q-146 667-125.50 677Q-105 687-87 679.50Q-69 672-71 643Q-76 619-96 609Q-116 599-134.50 606.50Q-153 614-151 643Z"   vert-adv-y="2048"  />

      
      <glyph glyph-name="uni030A" unicode="&#x030A;" d="M-144 718L-144 718Q-92 714-74.50 676.50Q-57 639-74.50 602Q-92 565-144 561Q-195 565-212.50 602Q-230 639-212.50 676.50Q-195 714-144 718M-144 589L-144 589Q-110 592-99 615.50Q-88 639-99 663Q-110 687-144 690Q-177 687-188 663Q-199 639-188 615.50Q-177 592-144 589Z"   vert-adv-y="2048"  />

      
      <glyph glyph-name="uni030C" unicode="&#x030C;" d="M-55 711L-55 711Q-52 706-53 700Q-54 694-58 690Q-110 641-141 577Q-155 558-174 561.50Q-193 565-196 589Q-198 643-238 685Q-242 690-241 696Q-240 702-235 707Q-228 713-215.50 706Q-203 699-190.50 686.50Q-178 674-171 665Q-169 663-168 662Q-163 656-158 649Q-140 669-118.50 688Q-97 707-80 715Q-63 723-55 711Z"   vert-adv-y="2048"  />

      
      <glyph glyph-name="uni0327" unicode="&#x0327;" d="M-89-44L-89-44Q-66-61-71-87.50Q-76-114-99-128Q-112-135-126.50-135Q-141-135-153-132Q-162-131-170.50-132Q-179-133-186-138Q-189-141-193.50-141Q-198-141-201-138Q-205-127-196-119Q-187-111-174-106.50Q-161-102-152-103Q-136-104-122-100.50Q-108-97-105-80Q-105-70-112.50-68.50Q-120-67-129.50-70Q-139-73-144-77Q-147-79-150-77.50Q-153-76-154-73Q-155-70-153-67Q-148-25-127 12Q-118 25-107 22.50Q-96 20-90.50 9.50Q-85-1-95-12Q-108-25-119-40Q-103-37-89-44Z"   vert-adv-y="2048"  />

      
      <glyph glyph-name="uni2013" unicode="&#x2013;" d="M675 303L675 303Q691 301 700.50 295Q710 289 708 281Q703 268 660.50 264Q618 260 573 260Q544 259 527 258Q305 253 83 261Q57 263 48.50 272.50Q40 282 48.50 291Q57 300 82 302Q379 317 675 303Z"  horiz-adv-x="810" vert-adv-y="2048"  />

      
      <glyph glyph-name="uni2014" unicode="&#x2014;" d="M1175 303L1175 303Q1204 301 1220.50 295Q1237 289 1233 281Q1225 268 1148.50 264Q1072 260 992 260Q940 259 911 258Q513 253 116 261Q70 263 55 272.50Q40 282 54.50 291Q69 300 114 302Q645 317 1175 303Z"  horiz-adv-x="1337" vert-adv-y="2048"  />

      
      <glyph glyph-name="uni2018" unicode="&#x2018;" d="M166 706L166 706Q168 702 166 698Q164 694 161 692L160 692Q129 673 114 641Q106 626 103 610Q99 593 101 579Q103 566 95.50 556Q88 546 75 544Q62 543 52 550.50Q42 558 40 571Q40 574 40 578L40 580Q44 606 54 627Q64 648 78 665Q93 683 111 695Q130 708 151 714Q156 716 160.50 713.50Q165 711 166 706Z"  horiz-adv-x="268" vert-adv-y="2048"  />

      
      <glyph glyph-name="uni2019" unicode="&#x2019;" d="M168 688L168 688Q168 684 168 681L167 679Q164 653 154 632Q144 611 130 594Q115 576 97 563Q78 551 57 544Q52 543 47.50 545.50Q43 548 41 553Q40 557 42 561Q44 565 47 567L48 567Q79 586 94 618Q102 633 105 649Q108 666 107 680Q105 693 112.50 703Q120 713 133 715Q146 716 155.50 708.50Q165 701 168 688Z"  horiz-adv-x="268" vert-adv-y="2048"  />

      
      <glyph glyph-name="uni201A" unicode="&#x201A;" d="M168 25L168 25Q168 21 168 18L167 16Q164-10 154-31Q144-52 130-69Q115-87 97-100Q78-112 57-119Q52-120 47.50-117.50Q43-115 41-110Q40-106 42-102Q44-98 47-96L48-96Q79-77 94-45Q102-30 105-14Q108 3 107 17Q105 30 112.50 40Q120 50 133 52Q146 53 155.50 45.50Q165 38 168 25Z"  horiz-adv-x="268" vert-adv-y="2048"  />

      
      <glyph glyph-name="uni201C" unicode="&#x201C;" d="M296 706L296 706Q298 702 296 698Q294 694 291 692L290 692Q259 673 244 641Q236 626 233 610Q229 593 231 579Q233 566 225.50 556Q218 546 205 544Q192 543 182 550.50Q172 558 170 571Q170 574 170 578L170 580Q174 606 184 627Q194 648 208 665Q223 683 241 695Q260 708 281 714Q286 716 290.50 713.50Q295 711 296 706M166 706L166 706Q168 702 166 698Q164 694 161 692L160 692Q129 673 114 641Q106 626 103 610Q99 593 101 579Q103 566 95.50 556Q88 546 75 544Q62 543 52 550.50Q42 558 40 571Q40 574 40 578L40 580Q44 606 54 627Q64 648 78 665Q93 683 111 695Q130 708 151 714Q156 716 160.50 713.50Q165 711 166 706Z"  horiz-adv-x="398" vert-adv-y="2048"  />

      
      <glyph glyph-name="uni201D" unicode="&#x201D;" d="M298 688L298 688Q298 684 298 681L297 679Q294 653 284 632Q274 611 260 594Q245 576 227 563Q208 551 187 544Q182 543 177.50 545.50Q173 548 171 553Q170 557 172 561Q174 565 177 567L178 567Q209 586 224 618Q232 633 235 649Q238 666 237 680Q235 693 242.50 703Q250 713 263 715Q276 716 285.50 708.50Q295 701 298 688M168 688L168 688Q168 684 168 681L167 679Q164 653 154 632Q144 611 130 594Q115 576 97 563Q78 551 57 544Q52 543 47.50 545.50Q43 548 41 553Q40 557 42 561Q44 565 47 567L48 567Q79 586 94 618Q102 633 105 649Q108 666 107 680Q105 693 112.50 703Q120 713 133 715Q146 716 155.50 708.50Q165 701 168 688Z"  horiz-adv-x="398" vert-adv-y="2048"  />

      
      <glyph glyph-name="uni201E" unicode="&#x201E;" d="M298 25L298 25Q298 21 298 18L297 16Q294-10 284-31Q274-52 260-69Q245-87 227-100Q208-112 187-119Q182-120 177.50-117.50Q173-115 171-110Q170-106 172-102Q174-98 177-96L178-96Q209-77 224-45Q232-30 235-14Q238 3 237 17Q235 30 242.50 40Q250 50 263 52Q276 53 285.50 45.50Q295 38 298 25M168 25L168 25Q168 21 168 18L167 16Q164-10 154-31Q144-52 130-69Q115-87 97-100Q78-112 57-119Q52-120 47.50-117.50Q43-115 41-110Q40-106 42-102Q44-98 47-96L48-96Q79-77 94-45Q102-30 105-14Q108 3 107 17Q105 30 112.50 40Q120 50 133 52Q146 53 155.50 45.50Q165 38 168 25Z"  horiz-adv-x="398" vert-adv-y="2048"  />

      
      <glyph glyph-name="uni2020" unicode="&#x2020;" d="M462 402L462 402Q469 400 472 394.50Q475 389 474 382Q472 376 467 373Q462 370 456 370L456 370Q373 380 290 373L95-295Q93-302 87-305Q81-308 75-306Q68-304 65-298.50Q62-293 64-287L222 364Q157 353 95 334Q79 329 64.50 336.50Q50 344 45 360Q40 377 47.50 391Q55 405 71 411Q74 411 76 412L76 412Q156 426 237 427L309 719Q313 736 326.50 744Q340 752 357 749Q373 744 381.50 730.50Q390 717 386 700Q386 699 386 699L306 426Q385 421 462 402Z"  horiz-adv-x="575" vert-adv-y="2048"  />

      
      <glyph glyph-name="uni2021" unicode="&#x2021;" d="M507 402L507 402Q514 400 517 394.50Q520 389 519 382Q517 376 512 373Q507 370 501 370L501 370Q418 380 335 373L249 78Q344 79 439 63L439 63Q456 59 465 46Q474 33 472 16Q468 0 455-9.50Q442-19 425-16Q423-16 420-15Q334 12 242 22Q240 22 237 23Q235 23 233 23L140-295Q138-302 132-305Q126-308 120-306Q113-304 110-298.50Q107-293 109-287L185 26Q122 29 59 21L59 21Q52 20 47 24Q42 28 41 35Q40 42 43.50 46.50Q47 51 53 53Q124 71 197 76L267 364Q202 353 140 334Q124 329 109.50 336.50Q95 344 90 360Q85 377 92.50 391Q100 405 116 411Q119 411 121 412L121 412Q201 426 282 427L354 719Q358 736 371.50 744Q385 752 402 749Q418 744 426.50 730.50Q435 717 431 700Q431 699 431 699L351 426Q430 421 507 402Z"  horiz-adv-x="620" vert-adv-y="2048"  />

      
      <glyph glyph-name="uni2022" unicode="&#x2022;" d="M40 249Q40 291 70 320.50Q100 350 142 350Q184 350 213.50 320.50Q243 291 243 249Q243 207 213 177Q183 147 141 147Q99 147 69.50 177Q40 207 40 249Z"  horiz-adv-x="343" vert-adv-y="2048"  />

      
      <glyph glyph-name="uni2026" unicode="&#x2026;" d="M42-17L42-17Q47 7 67.50 17Q88 27 106 19.50Q124 12 123-17Q118-41 97.50-51Q77-61 58.50-53.50Q40-46 42-17M355-17L355-17Q360 7 380.50 17Q401 27 419 19.50Q437 12 436-17Q431-41 410.50-51Q390-61 371.50-53.50Q353-46 355-17M718-17L718-17Q723 7 743.50 17Q764 27 782 19.50Q800 12 799-17Q794-41 773.50-51Q753-61 734.50-53.50Q716-46 718-17Z"  horiz-adv-x="1105" vert-adv-y="2048"  />

      
      <glyph glyph-name="uni2039" unicode="&#x2039;" d="M277 434L277 434Q290 423 292.50 407.50Q295 392 285 378Q284 376 282 374L282 374Q239 327 188 290Q164 273 139 258Q154 252 168 242Q191 227 207 204Q223 180 225 151Q226 144 221.50 139.50Q217 135 210 134Q204 134 199.50 137.50Q195 141 193 147L193 147Q189 167 177 182Q164 196 146 206Q109 225 67 224Q55 224 48 231Q41 238 40 249Q40 264 52 272L55 273Q153 334 221 425Q231 439 247 441Q263 443 277 434Z"  horiz-adv-x="395" vert-adv-y="2048"  />

      
      <glyph glyph-name="uni203A" unicode="&#x203A;" d="M269 325L269 325Q280 325 287.50 318Q295 311 295 300Q295 285 283 277L280 275Q182 214 114 123Q104 110 88 107.50Q72 105 58 115Q45 125 42.50 141Q40 157 50 171Q51 173 53 174L53 175Q97 221 147 258Q171 275 196 290Q181 297 167 306Q144 322 128 345Q112 369 110 397Q109 404 113.50 409Q118 414 125 415Q131 415 135.50 411.50Q140 408 142 401L142 401Q146 382 158 367Q171 352 189 343Q226 324 269 325Z"  horiz-adv-x="395" vert-adv-y="2048"  />

      
      <glyph glyph-name="uni2044" unicode="&#x2044;" d="M555 710L555 710Q573 730 593.50 724.50Q614 719 623.50 700Q633 681 617 659Q449 456 316 228Q183 0 71-238Q67-246 59-246.50Q51-247 45.50-241Q40-235 43-225Q145 22 269 259Q393 496 555 710Z"  horiz-adv-x="733" vert-adv-y="2048"  />

      
      <glyph glyph-name="uni2215" unicode="&#x2215;" d="M555 710L555 710Q573 730 593.50 724.50Q614 719 623.50 700Q633 681 617 659Q449 456 316 228Q183 0 71-238Q67-246 59-246.50Q51-247 45.50-241Q40-235 43-225Q145 22 269 259Q393 496 555 710Z"  horiz-adv-x="733" vert-adv-y="2048"  />

      
      <glyph glyph-name="uni2212" unicode="&#x2212;" d="M484 303L484 303Q496 301 502.50 295Q509 289 507 281Q504 268 474 264Q444 260 413 260Q392 259 381 258Q225 253 70 261Q52 263 46 272.50Q40 282 46 291Q52 300 70 302Q277 317 484 303Z"  horiz-adv-x="609" vert-adv-y="2048"  />

      
      <glyph glyph-name="uniE001" unicode="&#xE001;" d="M1236 341L1236 341Q1110 235 952.50 122.50Q795 10 627-68Q608-141 592-212Q630-256 630-319Q627-370 599.50-413.50Q572-457 538-491Q530-499 519.50-498Q509-497 502.50-489.50Q496-482 497-471Q511-339 536-208Q484-165 397-140Q389-138 387-131Q385-124 388-118Q391-112 399-110Q457-102 513-83Q541-73 567-62Q605 95 659 247Q555 163 440 108Q436 106 432 105Q387 85 337 73Q287 61 239 82Q178 112 150 173Q141 194 137 217Q106 173 75 130Q42 86 8 42Q-16 9-57 1Q-100-1-115 30.50Q-130 62-118 98Q-74 270 50 398Q92 441 153 467Q178 475 193.50 460.50Q209 446 207.50 425Q206 404 182 393Q108 356 57 285.50Q6 215-22 134Q-6 156 10 177Q74 264 131 354Q143 372 161 373Q179 374 192.50 362Q206 350 205 330Q184 262 196 195Q205 165 230 140.50Q255 116 287 110Q360 111 428 142Q496 173 557 211Q621 253 681 305Q702 359 725 412Q784 556 874 684Q885 698 900.50 700Q916 702 930 692Q940 684 944 673Q946 670 946 667Q948 650 937 635Q937 635 937 635Q937 635 937 635Q888 484 781 363Q694 174 637-31Q795 46 940.50 146.50Q1086 247 1221 359Q1227 364 1232.50 361Q1238 358 1240 352.50Q1242 347 1236 341M462-128L462-128Q505-144 544-169Q551-133 559-97Q511-115 462-128M557-398L557-398Q605-325 580-267Q567-333 557-398Z"  horiz-adv-x="1181" vert-adv-y="2048"  />

      
      <glyph glyph-name="uniE002" unicode="&#xE002;" d="M1456 363L1456 363Q1462 358 1462 351.50Q1462 345 1458 340Q1418 300 1377 263Q1368 255 1358 247Q1300 195 1234.50 149Q1169 103 1093 86Q1045 79 1005 106.50Q965 134 949 179Q926 259 949 338Q881 291 813.50 234Q746 177 698 113Q667 27 635-56Q632-67 623-69.50Q614-72 605.50-67.50Q597-63 597-52Q591 36 637 111Q682 277 737 440Q764 515 794 593Q682 405 541 238Q539 236 537 234Q487 176 423 124.50Q359 73 280 71Q235 75 200.50 104.50Q166 134 149 175Q141 196 137 217Q107 173 75 130Q42 86 8 42Q-16 9-57 1Q-99-1-114.50 30.50Q-130 62-117 98Q-73 270 50 398Q93 441 153 467Q179 475 194 460.50Q209 446 207.50 425Q206 404 182 393Q109 358 58 286.50Q7 215-22 134Q60 241 132 354Q141 369 156.50 372.50Q172 376 187 367Q207 353 205 330Q194 288 191 249Q187 202 211 161Q235 120 284 112Q373 116 476.50 219Q580 322 678.50 467Q777 612 852 742Q862 768 871 793Q872 794 872 796Q894 853 917 910Q929 933 949.50 934.50Q970 936 984.50 921Q999 906 992 881Q944 756 892 630Q847 522 806 415Q776 336 747 254Q809 317 876 372Q942 427 1010 476Q1024 486 1040 483.50Q1056 481 1066 468Q1081 443 1066 420Q1031 383 1008 336Q978 280 979.50 215Q981 150 1043 117Q1104 100 1168 134Q1232 168 1279 207Q1322 241 1361 280Q1400 318 1435 360Q1439 365 1445 366Q1451 367 1456 363Z"  horiz-adv-x="1402" vert-adv-y="2048"  />

      
      <glyph glyph-name="uniE003" unicode="&#xE003;" d="M1183 1328L1183 1328Q1196 1344 1213.50 1343Q1231 1342 1243 1329Q1255 1316 1251 1295Q1227 1228 1192 1164Q1178 1137 1165 1110Q1046 876 913 650Q879 565 845 479Q841 467 836 454Q779 302 732 146.50Q685-9 670-171Q666-211 668-252Q670-293 685-330Q695-352 714-363Q724-370 723.50-379.50Q723-389 715-395Q707-401 696-396Q636-356 630.50-254.50Q625-153 645.50-39.50Q666 74 685 149Q688 161 690 171Q728 330 781 485Q694 382 599 286Q504 190 392 113Q335 75 284.50 72.50Q234 70 182 122Q146 163 136 217Q106 173 74 130Q41 86 7 42Q-17 9-58 1Q-100-1-115 30.50Q-130 62-118 98Q-74 270 50 398Q92 441 152 467Q178 475 193 460.50Q208 446 207 425Q206 404 181 393Q109 358 57.50 286.50Q6 215-23 134Q59 241 131 354Q142 372 160 373Q178 374 192 362Q206 350 204 330Q185 269 193 209Q201 149 263 117Q323 104 426 179.50Q529 255 634.50 363.50Q740 472 806 557Q875 744 957 925Q1005 1030 1060 1132Q1115 1234 1183 1328Z"  horiz-adv-x="1072" vert-adv-y="2048"  />

      
      <glyph glyph-name="uniE004" unicode="&#xE004;" d="M2055 363L2055 363Q2064 362 2066.50 355Q2069 348 2065.50 342Q2062 336 2053 336Q1859 359 1664 358Q1637 358 1609 358Q1602 358 1595 358Q1594 358 1592 358Q1524 198 1463 35Q1463-46 1432-121Q1426-136 1411.50-162.50Q1397-189 1377.50-204Q1358-219 1340-203Q1336-198 1335-191.50Q1334-185 1334-179Q1334-177 1334-175Q1353-100 1377-29Q1404 51 1432 129Q1430 137 1428 144Q1424 158 1419 171Q1334 60 1227.50-60Q1121-180 1010.50-275Q900-370 804-405Q708-440 644-381Q592-318 595.50-187Q599-56 641 111.50Q683 279 743 450Q632 311 500 192Q494 187 487 181Q437 137 372.50 99Q308 61 243 79Q194 99 169 135.50Q144 172 135 218Q104 173 72 130Q40 86 5 42Q-10 23-31.50 10Q-53-3-79 2Q-113 11-121.50 40Q-130 69-120 98Q-76 270 48 398Q90 441 151 467Q176 475 191 460.50Q206 446 205 425Q204 404 180 393Q107 358 55.50 286.50Q4 215-25 134Q57 241 129 354Q140 372 158 373Q176 374 190 362Q204 350 203 330Q184 271 191.50 209.50Q199 148 259 118Q320 101 414.50 167.50Q509 234 605 335Q701 436 770 525Q894 851 972 999Q1055 1172 1169 1328Q1184 1347 1207 1342Q1230 1337 1237 1314Q1240 1297 1233 1281Q1174 1132 1102 988Q1088 960 1075 932Q1058 898 1041 864Q978 729 896 603Q891 598 886 592Q789 345 722 89Q700 1 685.50-88.50Q671-178 675-269Q678-347 719-360Q760-373 814-350.50Q868-328 911-297Q1054-193 1175-64.50Q1296 64 1402 205Q1321 329 1166 328Q1159 329 1155.50 334.50Q1152 340 1154 346Q1156 352 1163 354Q1271 375 1380 377Q1384 377 1387 378Q1457 380 1527 381Q1528 383 1530 385Q1614 598 1687 814Q1689 819 1690 824Q1712 886 1721 951Q1725 977 1745 984Q1765 991 1783 980.50Q1801 970 1800 943Q1777 817 1728 699Q1718 673 1708 648Q1657 514 1601 381Q1773 380 1943 371Q1955 370 1967 369Q2011 367 2055 363M1245 342L1245 342Q1353 312 1414 221Q1449 268 1483 315Q1498 336 1512 358Q1378 358 1245 342M1432 187L1432 187Q1438 173 1443 158Q1459 202 1476 246Q1455 218 1432 187Z"  horiz-adv-x="2018" vert-adv-y="2048"  />

      
      <glyph glyph-name="uniE005" unicode="&#xE005;" d="M1218 363L1218 363Q1226 362 1228.50 355Q1231 348 1227.50 342Q1224 336 1215 336Q1169 344 1121 346Q980 354 838 350Q810 349 781 348Q743 247 707 145Q708 135 709 125Q715 37 681.50-53.50Q648-144 584-206Q572-216 558.50-209.50Q545-203 544-187Q544-187 544-186Q544-185 544-183Q544-181 544-179Q544-177 544-176Q544-175 544-175Q562-101 584-30Q622 93 664 214Q642 255 600 280Q547 205 481 146.50Q415 88 337 71Q273 60 220 91Q167 122 146 183Q140 199 136 217Q106 173 74 130Q42 86 7 42Q-17 9-58 1Q-100-1-115 30.50Q-130 62-118 98Q-74 270 50 398Q92 441 152 467Q178 475 193 460.50Q208 446 207 425Q206 404 182 393Q109 358 57.50 286.50Q6 215-23 134Q59 241 131 354Q143 372 160.50 373Q178 374 192 362Q206 350 204 330Q194 289 190.50 249.50Q187 210 204 172Q236 116 285.50 110Q335 104 386 128Q437 152 474 189Q524 237 569 295Q557 299 545 302Q504 313 462 313Q455 313 451.50 318.50Q448 324 450 330Q452 336 459 338Q506 349 554 355Q586 358 617 361Q703 488 769 630Q835 772 882 908Q888 928 892 949Q892 949 892 949Q892 949 893 950Q893 950 893 951Q897 977 917 984Q937 991 955 980.50Q973 970 972 943Q951 818 906 699Q898 674 890 649Q842 510 790 371Q1004 378 1218 363M709 452L709 452Q685 411 656 364Q686 366 717 368Q772 525 823 683Q771 565 709 452M537 327L537 327Q560 321 581 311Q590 323 599 336Q568 332 537 327M685 40L685 40Q692 71 692 102Q654-5 620-113Q646-80 662-38.50Q678 3 685 40M672 237L672 237Q690 291 709 345Q675 343 640 340Q626 317 611 295Q647 272 672 237Z"  horiz-adv-x="1174" vert-adv-y="2048"  />

      
      <glyph glyph-name="uniE006" unicode="&#xE006;" d="M1810 362L1810 362Q1815 358 1815.50 351.50Q1816 345 1811 339Q1772 300 1730 263Q1721 255 1712 247Q1654 195 1588.50 149Q1523 103 1447 86Q1399 79 1358.50 106Q1318 133 1302 179Q1279 258 1302 338Q1214 277 1130.50 200Q1047 123 1008 37Q998-8 989-53Q988-65 978.50-69Q969-73 960-68.50Q951-64 950-52Q946-9 958 33Q987 285 1068 525Q1126 693 1203 852Q1072 729 894 668Q890 658 887 649Q834 495 777 343Q742 250 709 157Q696 27 650-95Q648-100 646-105Q635-133 620.50-159.50Q606-186 582-206Q565-215 551-204Q537-193 541-175Q560-102 582-31Q634 138 693 305Q690 353 678 399Q618 294 532.50 196Q447 98 337 70Q274 60 220.50 90.50Q167 121 146 182Q140 199 137 217Q107 172 75 130Q42 85 8 42Q-16 9-57 0Q-99-1-114.50 30.50Q-130 62-117 97Q-74 270 50 398Q93 441 153 467Q178 475 193.50 460.50Q209 446 207.50 425Q206 404 182 392Q109 357 57.50 286Q6 215-22 134Q60 240 131 354Q143 372 161 373Q179 374 192.50 362Q206 350 205 329Q194 289 191 249Q188 209 205 171Q237 116 286 109.50Q335 103 386 127.50Q437 152 475 188Q582 295 666 435Q648 485 613.50 521.50Q579 558 525 575Q498 582 470 582Q465 582 461 586Q457 590 458 596Q458 601 461.50 604.50Q465 608 470 608Q532 611 594 620Q686 634 783 659Q841 786 882 907Q884 913 886 919Q889 934 890 950Q895 976 914.50 983.50Q934 991 952.50 980.50Q971 970 970 943Q948 816 903 696Q1004 733 1091.50 790Q1179 847 1241 929Q1274 994 1310 1058Q1319 1073 1334.50 1077.50Q1350 1082 1365 1074Q1379 1065 1383.50 1050Q1388 1035 1380 1020Q1239 770 1138 501Q1081 345 1041 185Q1126 288 1230 372Q1296 426 1364 476Q1378 486 1393.50 483.50Q1409 481 1420 467Q1435 443 1419 420Q1384 382 1361 336Q1331 280 1333 215Q1335 150 1396 117Q1446 101 1495 122.50Q1544 144 1586 172Q1588 173 1589 174Q1656 221 1715 279Q1754 318 1788 360Q1793 365 1799 365.50Q1805 366 1810 362M552 590L552 590Q641 548 678 454Q728 540 770 631Q660 603 552 590M635-58L635-58Q653-14 665 32Q650-13 635-58M707 346L707 346Q708 349 709 353Q759 496 807 640Q806 640 806 640Q805 640 804 639Q760 544 709 452Q700 436 690 420Q701 384 707 346Z"  horiz-adv-x="1764" vert-adv-y="2048"  />

      
      <glyph glyph-name="uniE007" unicode="&#xE007;" d="M1842 652L1842 652Q1859 632 1851 612.50Q1843 593 1823 586.50Q1803 580 1784 598Q1740 628 1600 643.50Q1460 659 1277 662Q1277 661 1277 660Q1275 655 1273 649Q1220 495 1163 343Q1128 250 1094 157Q1117 105 1110.50 44.50Q1104-16 1060-85Q1021-145 975-200Q974-201 973-202Q964-210 953-210Q942-210 934-201Q923-190 927-175Q945-102 967-31Q1004 89 1045 207Q1009 257 958.50 296.50Q908 336 856 368Q842 377 827 385Q815 356 804 326Q704 72 627-189Q621-206 606.50-208.50Q592-211 580.50-202Q569-193 573-175Q645 90 740 348Q753 384 766 419Q752 427 739 434Q690 358 630 290Q586 239 507.50 175Q429 111 344 82.50Q259 54 195 109Q147 154 137 217Q71 119-4 28Q-37-5-76.50 2Q-116 9-123 59Q-110 153-63 242Q-16 331 50 398Q93 441 153 467Q178 475 193.50 460.50Q209 446 207.50 425Q206 404 182 392Q107 355 57 285Q7 215-22 134Q60 240 131 354Q145 374 163.50 376Q182 378 195 365.50Q208 353 205 329Q186 269 194 207Q202 145 264 116Q317 108 375.50 136.50Q434 165 477 196Q617 302 713 447Q700 454 686 461Q647 481 608 501Q597 508 584 516Q554 531 527.50 551.50Q501 572 498 602L498 599Q496 624 545.50 639.50Q595 655 661.50 664Q728 673 780 677Q813 680 827 682Q831 682 835 683Q837 683 840 683Q874 763 900 845Q906 873 909 902Q913 925 928 933Q929 934 931 934Q951 943 970.50 932.50Q990 922 989 895Q972 790 936 690Q1074 700 1213 704Q1230 759 1246 813Q1247 817 1248 821Q1267 885 1276 950Q1280 976 1300 983Q1320 990 1338 979.50Q1356 969 1355 943Q1335 821 1292 706Q1475 709 1658 697Q1678 695 1699 693Q1737 691 1774.50 683Q1812 675 1842 652M772 437L772 437Q795 504 818 571Q787 509 749 450Q761 444 772 437M724 464L724 464Q782 553 826 650Q600 634 524 603Q528 575 582.50 541.50Q637 508 692 481Q710 471 724 464M1007-101L1007-101Q1052-56 1075 1Q1098 58 1085 121Q1084 123 1084 124Q1083 125 1083 126Q1043 13 1007-101M1052 229L1052 229Q1074 293 1096 357Q1149 509 1199 662Q1058 662 924 656Q917 634 910 613Q873 508 833 403Q896 367 953.50 323.50Q1011 280 1052 229Z"  horiz-adv-x="1399" vert-adv-y="2048"  />

      
      <glyph glyph-name="uniE008" unicode="&#xE008;" d="M1095 360L1095 360Q1101 366 1108 363.50Q1115 361 1117.50 354.50Q1120 348 1114 341Q1057 296 993 261Q929 226 863 194Q859 192 855 190Q762 147 664 113Q688 78 691 38Q690-2 676.50-38.50Q663-75 644-109Q608-173 557.50-226Q507-279 440-312Q433-315 426-313.50Q419-312 413-308Q393-291 389-266Q385-241 386-216Q386-211 386-207Q398-68 440 65Q476 184 517 301Q421 237 316 191Q287 179 259 167Q193 138 126 112Q163 57 148-5Q120-103 56.50-184Q-7-265-98-312L-98-312Q-106-316-114-313Q-131-308-140-292.50Q-149-277-151-262Q-160-131-104 45.50Q-48 222 11 368Q24 401 35 429Q43 449 52 469Q100 586 155 700Q210 814 284 918Q299 938 320 955Q321 955 323 956Q340 964 356 965.50Q372 967 382 946Q386 937 384 929Q378 901 372 877Q337 717 252 579Q181 462 95 356Q55 258 18 159Q31 164 49 162Q66 160 81 152Q182 155 313.50 213Q445 271 528 332Q573 456 624 579Q692 749 777 911Q785 924 792 938Q829 1014 889 1073L889 1073L908 1081Q921 1086 933 1081.50Q945 1077 951 1065Q955 1056 953 1047Q948 1013 940 987Q897 804 811 637Q728 477 616 335Q583 246 551 157Q552 158 552 158Q553 158 553 158Q591 169 621 152Q735 158 884.50 228.50Q1034 299 1095 360M322 830L322 830Q293 784 269 734Q259 715 249 695Q182 562 124 425Q243 573 304 752Q316 789 322 830M-117-275L-117-275L-117-275L-117-275L-117-275M43 83L43 83L42 85Q35 83 27 81Q5 84-5 97Q-47-21-81-143Q-100-204-101-265Q0-195 52-81Q54-76 57-69Q70-40 79-6.50Q88 27 76 53Q71 62 63 71Q55 80 46 83Q44 84 43 84Q42 84 43 83M851 872L851 872Q810 793 774 711Q706 560 644 405Q795 603 867 840Q869 850 872 859Q883 899 889 941Q877 920 865 898Q858 885 851 872M590-81L590-81Q592-76 595-69Q608-40 617.50-6.50Q627 27 614 53Q609 62 601 71Q593 80 585 83Q583 84 582 84Q581 84 581 83L581 85Q573 83 564 81Q541 83 532 101Q508 30 486-42Q466-106 451-170Q450-175 448-181Q437-223 438-265Q539-194 590-81Z"  horiz-adv-x="1069" vert-adv-y="2048"  />

      
      <glyph glyph-name="uniE009" unicode="&#xE009;" d="M1296 357L1296 357Q1301 362 1306.50 360.50Q1312 359 1314.50 354Q1317 349 1312 343Q1237 269 1114 185.50Q991 102 857 47Q723-8 616 2Q550 12 532 52.50Q514 93 528.50 148Q543 203 574 255Q487 179 378 106.50Q269 34 158-11.50Q47-57-45-52Q-116-40-128 14.50Q-140 69-115 141Q-90 213-52 277Q-14 341 15 374Q51 418 105 453.50Q159 489 218 460Q238 443 235.50 423Q233 403 215.50 392Q198 381 175 392Q158 392 142 381Q126 370 112 357Q108 354 105 351Q-2 243-56 101Q-58 96-60 90Q-65 73-70 50.50Q-75 28-74 9.50Q-73-9-59-16Q9-35 80-13Q151 9 213 41Q415 146 586 295Q610 316 632 338Q637 343 641 347Q677 388 729 412.50Q781 437 834 408Q854 392 851.50 371.50Q849 351 831.50 340Q814 329 791 340Q760 346 722.50 314Q685 282 654 239Q623 196 611 169Q602 153 593 125Q584 97 584 71.50Q584 46 604 37Q677 19 750.50 37.50Q824 56 893 85Q1082 167 1238 301Q1270 327 1296 357Z"  horiz-adv-x="1269" vert-adv-y="2048"  />

      
      </font>
</defs>
</svg>
